<svg width="211" height="63" viewBox="0 0 211 63" fill="none" xmlns="http://www.w3.org/2000/svg">
<path d="M37.6728 22.5182C38.0567 22.4081 38.4565 22.4505 38.7763 22.735C39.1007 23.0239 39.2365 23.4754 39.2763 23.9323L39.3124 24.484C39.3208 24.6431 39.3287 24.7636 39.3417 24.8708C39.3654 25.0648 39.4061 25.1983 39.5126 25.3581C39.6498 25.5637 39.8402 25.8283 39.8896 26.1491C39.9297 26.4095 39.8758 26.6602 39.7704 26.9206L39.6493 27.1852C39.3327 27.8162 39.0882 28.6273 39.1181 29.2702L39.1269 29.7497C39.1269 29.8768 39.128 29.9438 39.1337 30.0006C39.141 30.0725 39.1547 30.1455 39.2948 30.3795L39.3993 30.5338C39.5142 30.6859 39.6597 30.8369 39.8271 31.0143C40.0165 31.215 40.291 31.5031 40.4032 31.8385C40.454 31.9899 40.6426 32.3778 40.6142 32.9166C40.5891 33.3915 40.4078 33.9559 39.9628 34.6696L39.7558 34.984C39.5146 35.3339 39.4321 35.6151 39.4179 35.8336C39.4038 36.0524 39.4562 36.2482 39.5439 36.4323C39.6347 36.6226 39.7568 36.7882 39.8837 36.9567C39.9418 37.0338 40.0117 37.1263 40.0663 37.2125C40.1016 37.2683 40.1584 37.3628 40.1913 37.4801L40.2148 37.6051L40.2675 37.9547C40.2928 38.1109 40.3216 38.3012 40.3388 38.4997C40.3667 38.8224 40.3738 39.2603 40.2079 39.6413L40.1259 39.8004C39.9481 40.0947 39.7799 40.2953 39.6728 40.4372C39.5947 40.5406 39.5371 40.6258 39.4902 40.7321L39.4462 40.8473C39.424 40.9145 39.3951 41.0619 39.3681 41.2897C39.3424 41.5065 39.3219 41.7652 39.3056 42.0348C39.2729 42.5743 39.2597 43.1384 39.2597 43.4645C39.2597 43.805 39.2547 44.1181 39.2499 44.3649C39.245 44.6185 39.2402 44.7878 39.2402 44.86C39.24 45.702 38.5818 46.2003 37.9257 46.1745C37.5981 46.1615 37.2672 46.0182 37.0312 45.7321C36.7946 45.445 36.6878 45.0582 36.7157 44.6168L36.7197 44.5504C36.7193 44.5397 36.719 44.5283 36.7187 44.5163C36.716 44.4237 36.7131 44.2908 36.7089 44.1305C36.7006 43.8097 36.6902 43.3766 36.6835 42.9303C36.6769 42.4847 36.6736 42.0218 36.6786 41.6422C36.6812 41.4529 36.6855 41.28 36.6933 41.1383C36.7002 41.012 36.7117 40.8674 36.7382 40.7614L36.7577 40.6588C36.7704 40.5563 36.7643 40.4543 36.7441 40.3708C36.7214 40.2774 36.6923 40.2488 36.6923 40.2477L36.703 40.2545C36.5296 40.1523 36.3455 40.0101 36.2538 39.7604C36.1827 39.5665 36.1904 39.3443 36.1904 39.2057C36.1904 39.0422 36.2331 38.8767 36.2665 38.7584C36.2846 38.6943 36.3051 38.6275 36.3232 38.568C36.3419 38.5064 36.3589 38.4494 36.3739 38.3942C36.4052 38.2796 36.4206 38.197 36.4228 38.1383C36.4234 38.1202 36.4216 38.1086 36.4208 38.1022C36.4007 38.0721 36.3759 38.0368 36.3427 37.9899C36.3061 37.9381 36.2616 37.8756 36.2177 37.8083C36.132 37.6768 36.0292 37.5003 35.9697 37.2985C35.9081 37.0894 35.888 36.8321 35.995 36.5661C36.1009 36.3031 36.3057 36.0962 36.5722 35.9342L36.6113 35.9049C36.6971 35.8285 36.7457 35.6786 36.6698 35.3366C36.6311 35.1617 36.5678 34.9851 36.5058 34.8268C36.4905 34.7878 36.4763 34.7503 36.4618 34.7145C36.4477 34.6795 36.4325 34.6442 36.4198 34.612C36.4104 34.5879 36.3962 34.5529 36.3827 34.5133L36.3486 34.3874C36.3232 34.2531 36.3365 34.0965 36.3407 34.0299C36.347 33.9322 36.3514 33.8575 36.3466 33.7858C36.3402 33.6903 36.3221 33.6389 36.2851 33.6012L36.2421 33.567C35.9901 33.4065 35.7706 33.2535 35.6083 33.0885C35.4549 32.9327 35.3386 32.7518 35.288 32.5309L35.2704 32.4342C35.2539 32.3099 35.1904 31.8948 35.1904 31.4489C35.1904 31.2255 35.2063 30.9771 35.2577 30.7409C35.3079 30.5106 35.4009 30.2476 35.5888 30.0377L35.8818 29.7291C35.9578 29.6491 35.9881 29.6095 36.0038 29.5817C36.0094 29.5718 36.0354 29.5391 36.0195 29.3932L35.9872 29.2057C35.9146 28.877 35.8594 28.7651 35.8056 28.6764C35.7675 28.6137 35.7326 28.5671 35.662 28.4616C35.6295 28.413 35.5947 28.3587 35.5566 28.2965L35.4335 28.0836C35.1919 27.6413 35.2135 27.1389 35.2929 26.7321C35.3741 26.316 35.5329 25.914 35.6591 25.6168L35.7284 25.445C35.7797 25.3094 35.782 25.2707 35.7831 25.2321C35.7846 25.1836 35.7811 25.1297 35.7743 25.0036C35.768 24.886 35.7607 24.7326 35.7607 24.5221C35.7606 24.2486 35.6907 24.1892 35.623 24.0163C35.6093 23.9815 35.5413 23.8157 35.6034 23.6208C35.6768 23.391 35.8639 23.2993 35.9423 23.2682C36.024 23.2358 36.1107 23.2203 36.1708 23.2106C36.2388 23.1996 36.3213 23.1894 36.413 23.1784L36.5917 23.1471C36.6357 23.1361 36.6664 23.1245 36.6884 23.1149C36.7279 23.0975 36.7582 23.0777 36.8046 23.0377C36.9176 22.9404 37.1059 22.7362 37.5097 22.5739L37.6728 22.5182Z" fill="#11CCAB" stroke="#0F1E21"/>
<path d="M36.9294 12.0266C37.0449 12.0266 37.1993 12.0415 37.3551 12.1223C37.5165 12.206 37.6318 12.3348 37.7135 12.4797C37.8587 12.7372 37.9313 13.1105 37.984 13.5852L38.0085 13.9318C38.011 14.0304 38.0086 14.113 38.0055 14.1838C38.0021 14.2645 37.9998 14.2901 37.9987 14.3322C37.9986 14.3358 37.9987 14.3392 37.9987 14.342C38.0042 14.3501 38.0125 14.3632 38.026 14.3801C38.0866 14.4558 38.1942 14.5683 38.3971 14.7697L38.4987 14.8606C38.5905 14.9324 38.6519 14.9515 38.6813 14.9572C38.7167 14.9641 38.7497 14.9598 38.7956 14.9387C38.8499 14.9136 38.9026 14.8746 38.9733 14.8166C38.9954 14.7985 39.0542 14.7481 39.109 14.7131C39.1345 14.6968 39.2038 14.6544 39.2985 14.633C39.398 14.6106 39.5632 14.607 39.7126 14.7121L39.7751 14.7649L39.8268 14.8215C39.9323 14.9562 39.9439 15.1047 39.943 15.1779C39.9419 15.2671 39.9223 15.3456 39.9069 15.3967C39.8751 15.5024 39.8213 15.6208 39.7672 15.7336L39.2907 16.674C39.152 16.9506 39.1554 17.128 39.2165 17.3537C39.2528 17.488 39.3092 17.634 39.3874 17.8332C39.4629 18.0257 39.553 18.2561 39.6383 18.5256L39.6979 18.7336C39.7484 18.9396 39.7724 19.1396 39.7536 19.3283C39.726 19.6024 39.6071 19.8431 39.3903 20.0168C39.1941 20.1738 38.9565 20.2445 38.7438 20.2824C38.6351 20.3018 38.5192 20.3144 38.3991 20.3234L38.0299 20.341C37.8031 20.3466 37.6407 20.363 37.4987 20.3762C37.3681 20.3883 37.2067 20.4041 37.0426 20.382C36.7709 20.3454 36.5448 20.2133 36.2897 20.0168L36.0221 19.8C35.6587 19.4972 35.3824 19.291 35.1911 19.093C35.0214 18.9174 34.9032 18.7379 34.7838 18.5002L34.6618 18.2404C34.451 17.7667 34.4594 17.3639 34.5836 17.0031C34.6404 16.8383 34.7176 16.6929 34.7848 16.5734C34.8588 16.442 34.9127 16.3545 34.9655 16.2492L35.0338 16.1272C35.1048 16.0112 35.1825 15.9145 35.2536 15.8332C35.3 15.7801 35.3478 15.7285 35.3874 15.6857C35.4289 15.6408 35.4637 15.6025 35.4958 15.5647C35.608 15.4319 35.6771 15.3159 35.6852 15.1027L35.6823 14.9943C35.6448 14.9727 35.5967 14.9439 35.5465 14.9035C35.4171 14.7992 35.3119 14.6588 35.2321 14.469L35.2311 14.4699C35.035 14.0014 34.9779 13.5744 35.0749 13.1965C35.1739 12.8106 35.4153 12.5471 35.6735 12.3772C36.1557 12.06 36.7554 12.0266 36.9294 12.0266Z" fill="#11CCAB" stroke="#0F1E21"/>
<path d="M49.6165 23.5067C50.0042 23.4634 50.3479 23.5281 50.6663 23.6991C51.0056 23.8813 51.2826 24.1685 51.5403 24.4667L51.6262 24.5477C51.6446 24.56 51.6522 24.5605 51.6477 24.5594C51.6356 24.5565 51.636 24.564 51.6673 24.5506C51.7053 24.5344 51.7584 24.5001 51.8303 24.4393C51.8648 24.4102 51.8987 24.3782 51.9358 24.3436C51.9696 24.3121 52.0136 24.2705 52.052 24.2362C52.4215 23.9058 52.8575 23.8366 53.4251 23.8876L53.4368 23.8651L53.7962 23.9198L54.0823 23.9784C54.7375 24.1467 55.2903 24.5393 55.4221 25.1209C55.5023 25.475 55.4007 25.8262 55.1546 26.1043C54.9196 26.3697 54.5687 26.5556 54.1458 26.6708H54.1448C54.1117 26.6798 54.0939 26.6889 53.9954 26.7303C53.9031 26.7691 53.7854 26.8151 53.6145 26.8592C53.2832 26.9448 52.7725 27.0196 51.8548 27.0594C51.4001 27.0792 51.1024 27.0756 50.9055 27.0516C50.8097 27.0399 50.6991 27.0192 50.5969 26.9715C50.5267 26.9387 50.4568 26.8888 50.3967 26.8211C50.1947 26.8214 50.0797 26.9135 50.0061 27.079C49.9205 27.2718 49.9081 27.5524 49.9934 27.8075C50.1651 28.3211 50.074 28.8109 49.8059 29.2176C49.581 29.5588 49.242 29.8292 48.8587 30.0321L48.6917 30.1151C48.3749 30.2627 47.9273 30.6094 47.4817 31.079C47.0964 31.485 46.7437 31.9505 46.5022 32.3934L46.4055 32.5809C46.3064 32.788 46.3185 32.8852 46.3274 32.9217C46.3384 32.9665 46.3714 33.0286 46.4778 33.1297C46.5306 33.1799 46.5921 33.2307 46.6673 33.2918C46.7377 33.3492 46.8245 33.4192 46.9065 33.492C47.07 33.6374 47.2694 33.8419 47.3792 34.1297L47.4143 34.2362C47.5696 34.769 47.3678 35.2798 47.1116 35.6825C46.9034 36.0096 46.6196 36.3295 46.3274 36.6258L46.0344 36.9139C45.8973 37.0457 45.8425 37.1559 45.8206 37.2411C45.7983 37.3277 45.8004 37.4269 45.8342 37.5497C45.9093 37.8213 46.1083 38.1122 46.3596 38.4608L46.3635 38.4657C46.403 38.4583 46.4862 38.4319 46.6194 38.3456C46.7635 38.2522 46.919 38.1241 47.0833 37.9803C47.2344 37.848 47.4121 37.6847 47.5569 37.5692C48.0115 37.2064 48.5272 37.26 48.9085 37.3836C49.1927 37.4759 49.473 37.6326 49.6809 37.7508H49.6819C49.814 37.5633 50.1301 37.093 50.7805 37.1415L50.9417 37.1581C51.726 37.2644 52.1997 37.6949 52.5823 38.1317C52.6315 38.1876 52.7173 38.2391 52.9192 38.2196C53.1329 38.1989 53.4163 38.0998 53.7444 37.9178C54.2139 37.6574 54.6479 37.6414 54.9954 37.8358C55.2204 37.9617 55.3586 38.1499 55.4309 38.3036L55.4827 38.4422L55.5012 38.5682C55.5035 38.6058 55.5027 38.6373 55.5022 38.6561C55.5008 38.7136 55.4965 38.7802 55.4876 38.8514C55.4697 38.9941 55.4338 39.1733 55.3723 39.367C55.2664 39.7009 55.0712 40.1124 54.718 40.4442L54.5569 40.5809C54.1186 40.9165 53.7216 41.0152 53.3245 40.9911C53.1459 40.9802 52.9771 40.9448 52.8382 40.9149C52.6905 40.8832 52.5685 40.856 52.4358 40.8397C52.1073 40.7993 51.8221 40.7397 51.6751 40.7157C51.6338 40.709 51.6024 40.7064 51.5794 40.704C51.563 40.7213 51.5439 40.7422 51.5208 40.7674C51.4375 40.858 51.3184 40.9887 51.178 41.1209C50.9364 41.3486 50.589 41.6208 50.1419 41.7459L49.9436 41.7909C49.738 41.8251 49.5988 41.844 49.4934 41.8573C49.3789 41.8717 49.3337 41.876 49.2776 41.8846C49.2337 41.8914 49.1887 41.9005 49.1057 41.9227L48.7073 42.0409C48.6642 42.0542 48.5616 42.1152 48.4085 42.3143C48.2635 42.5029 48.1149 42.7582 47.9592 43.0604C47.803 43.3637 47.6556 43.6814 47.4973 44.0067C47.3824 44.243 47.2626 44.4824 47.138 44.6991L47.012 44.9071C46.8206 45.2053 46.544 45.4618 46.1692 45.4842C45.7992 45.5063 45.5272 45.2885 45.3694 45.1004C45.2048 44.9041 45.0902 44.6581 45.0247 44.4256C44.961 44.1994 44.9262 43.9246 44.9866 43.6727L45.0003 43.5887C45.0006 43.5751 44.9988 43.5692 44.9983 43.5672C44.9971 43.5626 44.99 43.5374 44.9358 43.4676C44.8727 43.3864 44.7978 43.3066 44.6673 43.1571C44.5458 43.018 44.4014 42.8451 44.2424 42.6219C44.0949 42.4148 43.9698 42.2147 43.9182 42.0184C43.8891 41.9071 43.8788 41.7823 43.9085 41.6522C43.9377 41.5241 43.9976 41.4275 44.0491 41.3602C44.2458 41.1033 44.299 41.1592 44.384 40.8856L44.3997 40.8221C44.4083 40.7674 44.3989 40.737 44.3928 40.7215C44.3818 40.6938 44.3535 40.6506 44.2835 40.5995C44.1692 40.5161 44.0004 40.4534 43.8323 40.4178L43.6663 40.3915C43.6003 40.3847 43.5113 40.3908 43.3801 40.4129C43.3158 40.4238 43.2489 40.4369 43.1731 40.452C43.0999 40.4665 43.0181 40.483 42.9348 40.4969C42.6527 40.5442 42.2618 40.5838 41.8782 40.4042L41.7141 40.3133C41.5635 40.2153 41.4231 40.1052 41.3215 39.9706C41.2042 39.8147 41.1527 39.6438 41.1575 39.4676C41.1612 39.3326 41.2023 39.1963 41.2151 39.1473C41.2332 39.078 41.2455 39.0247 41.2493 38.9618L41.2717 38.7997C41.3067 38.6387 41.3737 38.4841 41.4378 38.3553C41.5294 38.171 41.6476 37.9767 41.7678 37.7918C41.8888 37.6059 42.0205 37.4172 42.138 37.2469C42.1462 37.235 42.1533 37.2225 42.1614 37.2108C42.0969 37.2325 42.0306 37.2502 41.9622 37.2596C41.6513 37.3024 41.3731 37.2043 41.1624 37.0643C40.9536 36.9256 40.788 36.7316 40.679 36.5292C40.5744 36.3349 40.4926 36.0768 40.5364 35.8114L40.5589 35.7127C40.6221 35.4902 40.7634 35.3102 40.8831 35.1825C41.0298 35.0258 41.21 34.8797 41.3801 34.7518C41.55 34.6241 41.7351 34.4964 41.884 34.3905C42.0434 34.2772 42.1591 34.1904 42.2317 34.1229L42.3372 34.0174C42.5618 33.7744 42.6405 33.5472 42.6575 33.2674L42.6731 33.076C42.7189 32.6219 42.8346 32.11 43.0452 31.6366L43.1077 31.4549C43.1757 31.2242 43.2566 30.8547 43.3274 30.4315C43.4193 29.8821 43.4807 29.3317 43.4807 29.0301C43.4808 28.5675 43.6556 28.0764 43.929 27.66C44.2046 27.2403 44.6073 26.8554 45.1116 26.6376C45.5978 26.4276 45.9999 26.4052 46.3089 26.3983C46.6381 26.3909 46.7518 26.39 46.8684 26.3319L46.886 26.3211C46.8892 26.3189 46.8909 26.3172 46.8909 26.3172C46.8947 26.3086 46.9051 26.2772 46.9085 26.2001C46.9123 26.1137 46.906 26.0145 46.8967 25.8719C46.8882 25.7403 46.8775 25.575 46.885 25.4051L46.8997 25.284C46.9513 25.0094 47.1272 24.7893 47.2766 24.6395C47.4636 24.4522 47.7034 24.282 47.9465 24.1376C48.4277 23.8517 49.0154 23.612 49.4475 23.5321L49.6165 23.5067Z" fill="#11CCAB" stroke="#0F1E21"/>
<path d="M62.4373 13.7282C62.6587 13.7508 62.8584 13.8336 63.0203 13.9762C63.177 14.1143 63.2736 14.2862 63.3337 14.4508C63.4202 14.6876 63.4462 14.9537 63.448 15.2008L63.4431 15.4401C63.4188 15.9609 63.3968 16.8798 62.9802 17.6862L62.8914 17.8463C62.5984 18.3374 62.7647 18.7261 62.9441 19.361C62.9793 19.4856 63.0141 19.5879 63.0496 19.692C63.0833 19.7911 63.1224 19.9054 63.1492 20.025C63.1948 20.2289 63.2016 20.4289 63.1609 20.6618L63.1042 20.9069C63.0832 20.981 63.0901 21.0518 63.1912 21.2076C63.2492 21.2971 63.3038 21.3651 63.3894 21.484C63.4628 21.586 63.5565 21.7236 63.6199 21.8825L63.6931 22.1051C63.7571 22.3447 63.7935 22.6338 63.7849 22.9352C63.7733 23.3412 63.6789 23.8091 63.4236 24.233C63.1309 24.719 63.0167 25.2704 62.9753 25.86L62.9617 26.1159C62.9524 26.3624 62.996 26.6615 63.0671 26.8785C63.2578 26.696 63.4115 26.5828 63.5583 26.5006C63.6474 26.4508 63.7281 26.4163 63.78 26.3932C63.8337 26.3693 63.8682 26.3526 63.906 26.3297C63.9841 26.2824 64.1479 26.1959 64.3064 26.109C64.4792 26.0142 64.6837 25.8992 64.8875 25.7711C65.0927 25.6421 65.2885 25.5057 65.447 25.3707C65.6129 25.2295 65.7035 25.118 65.739 25.0475L65.8269 24.8903C66.046 24.5411 66.3468 24.3241 66.7136 24.1969C67.0957 24.0645 67.5509 24.031 68.0193 24.0045L68.2927 23.9801C68.3531 23.9723 68.4003 23.963 68.4373 23.9547C68.4474 23.9242 68.4612 23.8886 68.4802 23.8512L68.5369 23.7614C68.5551 23.7365 68.5705 23.7174 68.5779 23.7086C68.6039 23.6775 68.6349 23.6427 68.6677 23.6071C68.7339 23.5352 68.8213 23.4447 68.9207 23.3434C69.12 23.14 69.3815 22.8805 69.6482 22.6149C70.197 22.0685 70.7421 21.5234 70.908 21.3219L71.033 21.1891C71.1785 21.0473 71.3821 20.8812 71.5964 20.7164C71.899 20.4839 72.2722 20.216 72.6589 19.9537C73.4159 19.4403 74.2843 18.9061 74.782 18.7096L74.9802 18.6412C75.4422 18.5077 75.8838 18.5578 76.1873 18.8942C76.4446 19.1798 76.487 19.5573 76.4578 19.8395L76.4412 19.9537C76.3951 20.202 76.2394 20.4078 76.1052 20.5524C75.9593 20.7094 75.7759 20.8598 75.5847 20.9957C75.2022 21.2677 74.7341 21.5193 74.324 21.6803C74.1626 21.7438 74.0513 21.8893 73.8572 22.317C73.6818 22.7033 73.4562 23.2716 72.9929 23.7789C72.5186 24.2982 71.9489 24.5704 71.4607 24.778C71.0043 24.972 70.6628 25.0976 70.3914 25.2828L70.28 25.3659C70.2014 25.4296 70.0942 25.5838 69.9773 25.8678C69.8659 26.1383 69.7695 26.4651 69.6775 26.8112C69.5894 27.1424 69.5 27.512 69.4128 27.8063C69.3682 27.9569 69.3192 28.1052 69.2644 28.236C69.2256 28.3285 69.1756 28.4329 69.1091 28.5289L69.0369 28.6217C68.6068 29.1085 67.7061 29.7576 66.7468 30.0094L66.5535 30.0543C66.1158 30.1434 65.6913 30.2523 65.3494 30.3541C65.0097 30.4553 64.7922 30.5382 64.7136 30.5778C64.704 30.5876 64.6819 30.612 64.6482 30.6578C64.5916 30.7348 64.5271 30.8428 64.4675 30.9694C64.3434 31.2333 64.2735 31.5129 64.2908 31.7233L64.3201 31.9049C64.4248 32.3448 64.7869 32.894 65.5232 33.6041L65.8601 33.9459C66.6426 34.7827 67.3986 35.8713 67.8855 36.8414L67.9578 36.9664C68.0305 37.0746 68.1048 37.1365 68.1726 37.1764C68.2688 37.233 68.3887 37.2666 68.5486 37.2809C68.7185 37.296 68.884 37.2881 69.1023 37.2858C69.2967 37.2837 69.5496 37.2851 69.7878 37.3551L69.906 37.3981C70.1698 37.5131 70.3435 37.7256 70.4548 37.9303C70.5806 38.1618 70.6536 38.4305 70.7009 38.6793C70.7941 39.1688 70.8116 39.743 70.8357 40.0494L70.8601 40.2135C70.9418 40.5705 71.1859 40.76 71.4353 41.0084L71.5593 41.1442C71.6892 41.2971 71.8329 41.497 71.9636 41.7096C72.1389 41.9947 72.3164 42.3424 72.4138 42.6813C72.5937 43.307 72.6726 44.3948 72.6726 44.9977C72.6726 45.2246 72.7437 45.6061 72.8552 46.0787C72.9547 46.5003 73.1037 47.0608 73.1931 47.4518L73.2703 47.7272C73.3635 48.0115 73.5005 48.3199 73.6472 48.6071C73.8419 48.9882 74.0349 49.2958 74.1218 49.4157L74.1882 49.5182C74.2557 49.6319 74.3249 49.7757 74.3865 49.9215C74.473 50.1265 74.5615 50.3748 74.6287 50.6305C74.6947 50.8822 74.7464 51.164 74.7439 51.4293C74.7415 51.6783 74.6901 52.0163 74.4421 52.2633L74.3591 52.3463L74.3337 52.3541C74.1723 52.4916 73.9807 52.602 73.7546 52.6198C73.4575 52.643 73.2299 52.5029 73.0837 52.3512C72.9459 52.208 72.8535 52.031 72.7908 51.8825C72.7685 51.8296 72.7498 51.7754 72.7312 51.7223C72.7078 51.8544 72.6821 52.0029 72.6492 52.1364C72.6076 52.3051 72.5328 52.5641 72.366 52.7496C72.269 52.8573 72.1205 52.9619 71.9197 52.985C71.7254 53.0072 71.5569 52.944 71.4304 52.8678C71.0212 52.6211 70.8249 52.262 70.7332 51.8561C70.6916 51.6723 70.6695 51.4676 70.656 51.2506L70.6316 50.5709C70.6245 50.3154 70.6211 50.1643 70.6121 50.0534C70.6079 50.0017 70.6033 49.9713 70.5994 49.9528C70.5962 49.9378 70.5939 49.9322 70.5935 49.9313C70.5924 49.929 70.5842 49.9104 70.5095 49.8278L70.1716 49.4567C69.9196 49.1705 69.5937 48.8548 69.3728 48.5055C69.1251 48.1138 68.9832 47.6617 68.9832 47.0328C68.9832 46.6277 68.8592 46.3488 68.6072 46.026C68.4731 45.8543 68.3072 45.6755 68.1003 45.4586C67.9992 45.3526 67.8894 45.2384 67.7732 45.1149L67.407 44.7145C66.9044 44.146 66.5583 43.6692 66.3718 43.1491C66.1815 42.6177 66.1756 42.0921 66.2458 41.4635C66.3026 40.9551 66.2129 40.7136 66.1042 40.5475C66.0415 40.4516 65.9577 40.3595 65.8416 40.2477L65.4324 39.861C65.1485 39.5781 64.9076 39.3186 64.7253 39.0729C64.5665 38.8587 64.4365 38.6337 64.366 38.3912L64.3386 38.2858C64.2693 37.9595 64.1602 37.4859 63.6423 36.8268C63.629 36.8492 63.6135 36.8738 63.5974 36.902C63.5664 36.9563 63.5285 37.0256 63.4851 37.0983L63.3416 37.316C63.2906 37.3842 63.1837 37.5373 63.1199 37.6188C63.0418 37.7185 62.9281 37.8496 62.7683 37.943C62.4478 38.1302 62.1185 38.0792 61.8083 37.9323C61.7957 38.0033 61.7949 38.1061 61.8181 38.3815C61.8403 38.6446 61.8816 39.0439 61.9226 39.6315L61.9333 39.8698C61.9433 40.4012 61.8505 40.7727 61.7214 41.1217C61.6112 41.4198 61.5074 41.6344 61.4148 41.9244L61.3259 42.2457C61.2043 42.7657 61.0943 43.1201 60.8894 43.4166C60.6941 43.6992 60.421 43.9072 60.1218 44.1588C59.9653 44.2906 59.9178 44.4541 59.9314 44.7467C59.9389 44.9083 59.9612 45.0484 59.9812 45.2467C59.9943 45.3763 60.0068 45.5334 59.9949 45.695L59.9734 45.858C59.907 46.2072 59.7602 46.5616 59.4861 46.8493C59.242 47.1053 58.9203 47.2844 58.5281 47.3698L58.3562 47.4C58.1458 47.4299 57.9259 47.4381 57.7283 47.3717C57.4869 47.2906 57.3331 47.1179 57.2605 46.9147C57.2046 46.7581 57.2024 46.5901 57.2 46.5114C57.1966 46.4046 57.1947 46.3432 57.1833 46.2838C57.1479 46.0987 57.1605 45.896 57.1824 45.7213C57.2053 45.5382 57.2446 45.3393 57.2869 45.1451C57.3758 44.7367 57.4739 44.3571 57.5251 44.0201L57.5818 43.7321C57.6464 43.4692 57.7354 43.2766 57.8464 43.0944C58.0038 42.8361 58.0853 42.7589 58.2429 42.4596L58.325 42.2936C58.3847 42.1596 58.3873 42.1084 58.3904 42.0592C58.3973 41.947 58.3869 41.7022 58.4597 41.2819L58.6843 39.8659C58.7243 39.6174 58.7647 39.3763 58.8044 39.1725C58.8422 38.979 58.8853 38.7869 58.9333 38.6539L58.9607 38.5436C58.988 38.3973 59.0114 38.1507 58.9978 37.8737C58.9892 37.6981 58.9666 37.5323 58.9294 37.3951C58.9101 37.3235 58.8886 37.2685 58.8689 37.2272L58.8171 37.1422C58.4844 36.7656 58.4718 36.3618 58.5408 36.0582C58.572 35.9209 58.6202 35.8008 58.6472 35.7321C58.6578 35.7051 58.6626 35.6878 58.6667 35.6764C58.6825 35.4821 58.7666 35.3116 58.8474 35.1569C58.9429 34.9739 59.1063 34.6883 59.3376 34.2653L59.3953 34.1403C59.4513 33.9993 59.5005 33.813 59.5388 33.5846C59.5888 33.2872 59.6159 32.9504 59.6287 32.611C59.6549 31.9162 59.6208 31.299 59.6208 30.9537C59.6209 30.7696 59.6474 30.5425 59.6658 30.358C59.6813 30.2022 59.6897 30.064 59.6921 29.9459C59.5544 30.0483 59.4472 30.205 59.3435 30.4323C59.2714 30.5904 59.2118 30.757 59.1394 30.9508C59.088 31.0886 59.0298 31.2404 58.9597 31.3893L58.8855 31.5368C58.7536 31.7798 58.5626 31.9678 58.323 32.0729C58.0851 32.1772 57.8341 32.1842 57.6072 32.1276C57.2189 32.0307 56.8855 31.7473 56.6941 31.3737L56.6218 31.2086C56.5091 30.9088 56.5464 30.5983 56.613 30.3473C56.6813 30.0903 56.7977 29.8303 56.9158 29.5953C57.0328 29.3625 57.1704 29.1181 57.2781 28.9176C57.3931 28.7034 57.4769 28.5346 57.5222 28.4039C57.6215 28.1173 57.6413 27.921 57.6414 27.7282C57.6414 27.6203 57.635 27.5196 57.6296 27.3825C57.6245 27.2507 57.621 27.1001 57.6287 26.9274L57.6443 26.7682C57.6989 26.3946 57.8774 26.0048 58.0427 25.6354C58.2466 25.18 58.4858 24.6508 58.6873 23.9713L58.8396 23.4078C58.9895 22.8019 59.131 22.0871 59.2449 21.4284C59.3995 20.534 59.491 19.809 59.491 19.608C59.491 19.3555 59.4903 18.5429 59.5105 17.6725C59.5304 16.8165 59.5708 15.8577 59.658 15.3375L59.696 15.1471C59.7416 14.9583 59.8129 14.7773 59.9373 14.6364C60.1505 14.3948 60.4198 14.3717 60.5984 14.3873C60.6759 14.3942 60.7533 14.4094 60.8015 14.4186C60.8581 14.4294 60.8979 14.4367 60.9373 14.441C61.0063 14.4487 61.058 14.4452 61.114 14.4235C61.2982 14.3517 61.3733 14.2602 61.5164 14.1071C61.5847 14.0339 61.6974 13.9156 61.8562 13.8317C62.0319 13.7389 62.2258 13.7065 62.4373 13.7282Z" fill="#11CCAB" stroke="#0F1E21"/>
<path d="M22.8033 39.2562C22.7496 39.2629 22.7034 39.2758 22.6686 39.2914C22.5637 39.3384 22.4705 39.4272 22.4244 39.5492L22.8932 39.726M22.8033 39.2562L22.7985 39.2347C22.7662 39.2409 22.6495 39.2634 22.5426 39.348C22.4988 39.3827 22.3263 39.5326 22.3512 39.7933C22.3779 40.0712 22.5956 40.1852 22.6686 40.2142C22.8313 40.2788 22.9833 40.2458 23.0778 40.2035C23.198 40.1495 23.3064 40.0473 23.361 39.9027L23.3268 39.889M22.8033 39.2562C22.8714 39.2478 22.9517 39.2504 23.0377 39.2845C23.1062 39.3118 23.321 39.4231 23.3473 39.6976C23.3542 39.7705 23.3436 39.8342 23.3268 39.889M22.8033 39.2562L22.8932 39.726M22.8932 39.726L22.9869 40.2172C22.9931 40.216 23.0108 40.2121 23.0348 40.2035C23.0533 40.1969 23.1062 40.1768 23.1637 40.1312C23.1914 40.1092 23.2843 40.0277 23.3268 39.889M22.8932 39.726L23.3268 39.889" fill="#11CCAB" stroke="#0F1E21"/>
<mask id="path-6-outside-1_4_118" maskUnits="userSpaceOnUse" x="0" y="1.56555" width="42" height="58" fill="black">
<rect fill="white" y="1.56555" width="42" height="58"/>
<path d="M38.9771 53.3392C38.0717 52.1743 38.3381 51.9088 38.2321 50.4757C38.126 49.0453 38.0717 49.3622 36.848 48.5143C35.6244 47.6663 36.3151 48.4086 35.8909 47.5065C35.464 46.6044 35.4123 45.8106 34.2404 45.3853C33.0711 44.9599 32.6986 44.1662 32.5382 43.0527C32.3777 41.9393 30.6756 40.88 30.0366 40.4032C29.3976 39.9264 29.1855 38.496 29.025 37.8594C28.8646 37.2227 27.8558 36.4804 27.1107 36.6403C26.3657 36.8001 25.6206 37.0656 25.569 36.1093C25.5146 35.1557 25.1421 35.2614 24.1333 35.73C23.1217 36.1987 22.964 34.4676 22.7492 33.1943C22.5344 31.921 21.5256 32.4005 20.3564 32.1865C19.1871 31.9752 20.5168 30.9132 20.9954 30.45C21.4739 29.984 21.9525 30.3308 22.325 29.2201C22.6976 28.1093 23.0701 28.7433 23.9756 28.6376C24.881 28.5319 25.9442 28.1066 26.1047 26.6247C26.2651 25.1401 26.7437 24.5035 27.7552 23.5499C28.7667 22.5963 27.4887 21.4287 27.9156 20.8462C28.3425 20.2638 29.3513 18.6193 29.2453 17.6657C29.1392 16.7121 29.1392 15.4389 29.5118 14.1141C29.8843 12.7894 28.715 13.0548 28.076 12.1527C27.437 11.2506 28.3942 10.0857 28.3942 8.65526C28.3942 7.22486 26.3739 7.27633 25.2019 7.59601C24.0299 7.91568 24.0327 6.43109 23.5514 5.31765C23.0728 4.20421 21.531 5.90011 20.7316 5.10634C19.9322 4.31258 17.0607 3.25061 16.2096 2.82799C15.3586 2.40266 14.1349 2.5625 12.8569 2.82799C11.5789 3.09348 11.2608 4.10127 10.5157 4.78938C9.77069 5.47749 8.33497 5.84864 7.58992 5.79716C6.84488 5.74298 6.20587 5.79716 4.87621 5.79716C3.54654 5.79716 3.86468 6.80495 3.01359 7.49306C2.16249 8.18117 2.48063 7.12191 1.47182 7.12191C0.463017 7.12191 1.25973 9.13478 2.11083 9.8256C2.96192 10.5137 2.85587 11.0447 3.06797 11.787C3.28006 12.5293 2.90754 13.6427 2.53501 15.1788C2.16249 16.7148 3.65259 18.0938 4.29159 18.9417C4.93059 19.7897 5.24873 19.684 5.11549 21.1144C4.98225 22.5448 5.24873 22.2279 5.14268 23.0216C5.03664 23.8154 5.24873 23.9752 5.55872 24.9288C5.8687 25.8824 5.67292 26.2021 5.56687 27.2614C5.46083 28.3206 6.31192 28.6403 6.84488 29.4341C7.37783 30.2278 7.05697 30.3362 7.10863 31.0785C7.1603 31.8208 7.42949 32.9857 7.69597 34.0477C7.96245 35.1096 7.8564 37.388 7.37783 37.9163C6.89926 38.4473 7.16574 38.8699 7.37783 39.5607C7.58992 40.2488 8.60145 41.4164 8.91959 42.1045C9.23773 42.7927 9.08002 42.7412 8.12288 43.6406C7.16574 44.5427 8.33497 45.919 8.60145 46.3958C8.86793 46.8726 9.45255 47.4035 9.66464 48.4628C9.87673 49.5221 9.98278 49.5762 10.6762 50.2129C11.3668 50.8495 10.9943 52.3856 10.9426 53.2877C10.8883 54.1898 11.1547 54.4012 11.7937 54.9321C12.4327 55.4631 12.1663 56.8393 12.2206 57.7957C12.275 58.752 13.3899 58.2725 13.3899 57.7957C13.3899 57.3189 13.3899 56.0998 13.602 55.5688C13.8141 55.0378 14.9316 54.8265 14.9316 54.0842C14.9316 53.3419 13.8685 52.0171 13.6836 51.4347C13.4987 50.8522 14.4014 49.7388 14.4531 48.8367C14.5075 47.9345 13.6156 47.1814 12.9113 46.3985C11.9406 45.3175 12.8053 44.0145 13.6564 42.901C14.5075 41.7876 13.6564 41.1509 12.8053 40.1973C11.9542 39.2437 13.2322 39.2952 13.2322 38.1845C13.2322 37.0737 12.0086 36.3287 12.3267 35.1096C12.6448 33.8905 14.241 34.8983 14.986 36.0118C15.7311 37.1252 15.8915 36.6999 17.1151 36.1174C18.3387 35.535 17.9118 36.5942 18.6052 37.9732C19.2986 39.3521 20.0953 38.8753 20.4678 38.45C20.8404 38.0246 20.8404 37.9732 22.17 38.9809C22.8444 39.4903 22.9178 39.6745 22.8933 39.7314C22.9205 39.726 22.9586 39.7232 23.0211 39.7232C23.5541 39.7232 24.7777 39.8289 25.2563 40.8882C25.7349 41.9474 25.6288 42.5841 27.3854 42.3727C29.142 42.1614 28.5546 42.5841 28.9815 44.0686C29.4084 45.5532 30.2595 45.7131 31.3744 46.5068C32.492 47.3006 32.7584 46.9322 33.343 48.3626C33.9277 49.793 35.0452 50.1126 36.3232 50.7466C37.6012 51.3832 37.3348 51.8058 37.6012 52.7594C37.8677 53.713 37.8133 54.244 38.8792 55.5146C39.9424 56.7879 40.315 57.1048 40.6358 56.0971C40.954 55.0893 39.8908 54.5068 38.9853 53.3419L38.9771 53.3392ZM19.5787 26.9607C18.975 26.855 17.3082 27.8086 16.9547 28.1987C16.6012 28.5861 15.4646 29.5072 15.0758 28.9681C14.6869 28.429 14.2247 27.9874 13.1968 28.0226C12.169 28.0579 12.3104 29.1523 11.9922 28.941C11.6741 28.7297 11.8508 28.3044 12.0983 27.1747C12.3457 26.045 12.3104 26.1859 11.2825 25.5492C10.252 24.9126 11.1765 24.5252 11.2118 23.7477C11.2472 22.9702 11.6387 23.2167 10.1079 22.2279C8.5797 21.239 9.86314 20.9546 10.078 20.2502C10.29 19.5431 9.36825 18.8009 8.72925 18.4839C8.09025 18.1669 8.48181 16.8232 8.8353 15.94C9.18879 15.0569 8.38936 15.0135 8.0549 14.3146C7.2745 12.6891 8.1963 11.7003 8.97669 11.7003C9.75709 11.7003 11.636 11.5594 12.2397 10.7115C12.8433 9.86352 13.7651 9.82831 14.3334 9.89874C14.9017 9.96918 15.6114 10.5002 16.4272 10.2509C17.2429 10.0044 17.5257 10.3918 17.7759 11.2397C18.0233 12.0877 18.8391 12.2286 19.372 11.806C19.905 11.3806 19.905 11.4538 20.5766 11.6299C21.2482 11.806 21.0742 12.513 21.3217 13.5371C21.5691 14.5611 22.3849 15.2682 22.9532 15.6935C23.5215 16.1188 23.342 16.7528 22.8825 17.4951C22.4202 18.2374 22.9178 18.3782 23.0946 18.5543C23.2713 18.7304 23.7336 19.6136 23.6982 20.2854C23.6629 20.9573 23.3447 21.6292 22.5643 22.0166C21.7839 22.404 21.5718 23.2898 21.5365 23.8181C21.5011 24.3464 21.7132 25.1266 21.2183 26.1859C20.7207 27.2451 20.1905 27.069 19.5868 26.9634L19.5787 26.9607Z"/>
</mask>
<path d="M38.9771 53.3392C38.0717 52.1743 38.3381 51.9088 38.2321 50.4757C38.126 49.0453 38.0717 49.3622 36.848 48.5143C35.6244 47.6663 36.3151 48.4086 35.8909 47.5065C35.464 46.6044 35.4123 45.8106 34.2404 45.3853C33.0711 44.9599 32.6986 44.1662 32.5382 43.0527C32.3777 41.9393 30.6756 40.88 30.0366 40.4032C29.3976 39.9264 29.1855 38.496 29.025 37.8594C28.8646 37.2227 27.8558 36.4804 27.1107 36.6403C26.3657 36.8001 25.6206 37.0656 25.569 36.1093C25.5146 35.1557 25.1421 35.2614 24.1333 35.73C23.1217 36.1987 22.964 34.4676 22.7492 33.1943C22.5344 31.921 21.5256 32.4005 20.3564 32.1865C19.1871 31.9752 20.5168 30.9132 20.9954 30.45C21.4739 29.984 21.9525 30.3308 22.325 29.2201C22.6976 28.1093 23.0701 28.7433 23.9756 28.6376C24.881 28.5319 25.9442 28.1066 26.1047 26.6247C26.2651 25.1401 26.7437 24.5035 27.7552 23.5499C28.7667 22.5963 27.4887 21.4287 27.9156 20.8462C28.3425 20.2638 29.3513 18.6193 29.2453 17.6657C29.1392 16.7121 29.1392 15.4389 29.5118 14.1141C29.8843 12.7894 28.715 13.0548 28.076 12.1527C27.437 11.2506 28.3942 10.0857 28.3942 8.65526C28.3942 7.22486 26.3739 7.27633 25.2019 7.59601C24.0299 7.91568 24.0327 6.43109 23.5514 5.31765C23.0728 4.20421 21.531 5.90011 20.7316 5.10634C19.9322 4.31258 17.0607 3.25061 16.2096 2.82799C15.3586 2.40266 14.1349 2.5625 12.8569 2.82799C11.5789 3.09348 11.2608 4.10127 10.5157 4.78938C9.77069 5.47749 8.33497 5.84864 7.58992 5.79716C6.84488 5.74298 6.20587 5.79716 4.87621 5.79716C3.54654 5.79716 3.86468 6.80495 3.01359 7.49306C2.16249 8.18117 2.48063 7.12191 1.47182 7.12191C0.463017 7.12191 1.25973 9.13478 2.11083 9.8256C2.96192 10.5137 2.85587 11.0447 3.06797 11.787C3.28006 12.5293 2.90754 13.6427 2.53501 15.1788C2.16249 16.7148 3.65259 18.0938 4.29159 18.9417C4.93059 19.7897 5.24873 19.684 5.11549 21.1144C4.98225 22.5448 5.24873 22.2279 5.14268 23.0216C5.03664 23.8154 5.24873 23.9752 5.55872 24.9288C5.8687 25.8824 5.67292 26.2021 5.56687 27.2614C5.46083 28.3206 6.31192 28.6403 6.84488 29.4341C7.37783 30.2278 7.05697 30.3362 7.10863 31.0785C7.1603 31.8208 7.42949 32.9857 7.69597 34.0477C7.96245 35.1096 7.8564 37.388 7.37783 37.9163C6.89926 38.4473 7.16574 38.8699 7.37783 39.5607C7.58992 40.2488 8.60145 41.4164 8.91959 42.1045C9.23773 42.7927 9.08002 42.7412 8.12288 43.6406C7.16574 44.5427 8.33497 45.919 8.60145 46.3958C8.86793 46.8726 9.45255 47.4035 9.66464 48.4628C9.87673 49.5221 9.98278 49.5762 10.6762 50.2129C11.3668 50.8495 10.9943 52.3856 10.9426 53.2877C10.8883 54.1898 11.1547 54.4012 11.7937 54.9321C12.4327 55.4631 12.1663 56.8393 12.2206 57.7957C12.275 58.752 13.3899 58.2725 13.3899 57.7957C13.3899 57.3189 13.3899 56.0998 13.602 55.5688C13.8141 55.0378 14.9316 54.8265 14.9316 54.0842C14.9316 53.3419 13.8685 52.0171 13.6836 51.4347C13.4987 50.8522 14.4014 49.7388 14.4531 48.8367C14.5075 47.9345 13.6156 47.1814 12.9113 46.3985C11.9406 45.3175 12.8053 44.0145 13.6564 42.901C14.5075 41.7876 13.6564 41.1509 12.8053 40.1973C11.9542 39.2437 13.2322 39.2952 13.2322 38.1845C13.2322 37.0737 12.0086 36.3287 12.3267 35.1096C12.6448 33.8905 14.241 34.8983 14.986 36.0118C15.7311 37.1252 15.8915 36.6999 17.1151 36.1174C18.3387 35.535 17.9118 36.5942 18.6052 37.9732C19.2986 39.3521 20.0953 38.8753 20.4678 38.45C20.8404 38.0246 20.8404 37.9732 22.17 38.9809C22.8444 39.4903 22.9178 39.6745 22.8933 39.7314C22.9205 39.726 22.9586 39.7232 23.0211 39.7232C23.5541 39.7232 24.7777 39.8289 25.2563 40.8882C25.7349 41.9474 25.6288 42.5841 27.3854 42.3727C29.142 42.1614 28.5546 42.5841 28.9815 44.0686C29.4084 45.5532 30.2595 45.7131 31.3744 46.5068C32.492 47.3006 32.7584 46.9322 33.343 48.3626C33.9277 49.793 35.0452 50.1126 36.3232 50.7466C37.6012 51.3832 37.3348 51.8058 37.6012 52.7594C37.8677 53.713 37.8133 54.244 38.8792 55.5146C39.9424 56.7879 40.315 57.1048 40.6358 56.0971C40.954 55.0893 39.8908 54.5068 38.9853 53.3419L38.9771 53.3392ZM19.5787 26.9607C18.975 26.855 17.3082 27.8086 16.9547 28.1987C16.6012 28.5861 15.4646 29.5072 15.0758 28.9681C14.6869 28.429 14.2247 27.9874 13.1968 28.0226C12.169 28.0579 12.3104 29.1523 11.9922 28.941C11.6741 28.7297 11.8508 28.3044 12.0983 27.1747C12.3457 26.045 12.3104 26.1859 11.2825 25.5492C10.252 24.9126 11.1765 24.5252 11.2118 23.7477C11.2472 22.9702 11.6387 23.2167 10.1079 22.2279C8.5797 21.239 9.86314 20.9546 10.078 20.2502C10.29 19.5431 9.36825 18.8009 8.72925 18.4839C8.09025 18.1669 8.48181 16.8232 8.8353 15.94C9.18879 15.0569 8.38936 15.0135 8.0549 14.3146C7.2745 12.6891 8.1963 11.7003 8.97669 11.7003C9.75709 11.7003 11.636 11.5594 12.2397 10.7115C12.8433 9.86352 13.7651 9.82831 14.3334 9.89874C14.9017 9.96918 15.6114 10.5002 16.4272 10.2509C17.2429 10.0044 17.5257 10.3918 17.7759 11.2397C18.0233 12.0877 18.8391 12.2286 19.372 11.806C19.905 11.3806 19.905 11.4538 20.5766 11.6299C21.2482 11.806 21.0742 12.513 21.3217 13.5371C21.5691 14.5611 22.3849 15.2682 22.9532 15.6935C23.5215 16.1188 23.342 16.7528 22.8825 17.4951C22.4202 18.2374 22.9178 18.3782 23.0946 18.5543C23.2713 18.7304 23.7336 19.6136 23.6982 20.2854C23.6629 20.9573 23.3447 21.6292 22.5643 22.0166C21.7839 22.404 21.5718 23.2898 21.5365 23.8181C21.5011 24.3464 21.7132 25.1266 21.2183 26.1859C20.7207 27.2451 20.1905 27.069 19.5868 26.9634L19.5787 26.9607Z" fill="#11CCAB"/>
<path d="M38.9771 53.3392C38.0717 52.1743 38.3381 51.9088 38.2321 50.4757C38.126 49.0453 38.0717 49.3622 36.848 48.5143C35.6244 47.6663 36.3151 48.4086 35.8909 47.5065C35.464 46.6044 35.4123 45.8106 34.2404 45.3853C33.0711 44.9599 32.6986 44.1662 32.5382 43.0527C32.3777 41.9393 30.6756 40.88 30.0366 40.4032C29.3976 39.9264 29.1855 38.496 29.025 37.8594C28.8646 37.2227 27.8558 36.4804 27.1107 36.6403C26.3657 36.8001 25.6206 37.0656 25.569 36.1093C25.5146 35.1557 25.1421 35.2614 24.1333 35.73C23.1217 36.1987 22.964 34.4676 22.7492 33.1943C22.5344 31.921 21.5256 32.4005 20.3564 32.1865C19.1871 31.9752 20.5168 30.9132 20.9954 30.45C21.4739 29.984 21.9525 30.3308 22.325 29.2201C22.6976 28.1093 23.0701 28.7433 23.9756 28.6376C24.881 28.5319 25.9442 28.1066 26.1047 26.6247C26.2651 25.1401 26.7437 24.5035 27.7552 23.5499C28.7667 22.5963 27.4887 21.4287 27.9156 20.8462C28.3425 20.2638 29.3513 18.6193 29.2453 17.6657C29.1392 16.7121 29.1392 15.4389 29.5118 14.1141C29.8843 12.7894 28.715 13.0548 28.076 12.1527C27.437 11.2506 28.3942 10.0857 28.3942 8.65526C28.3942 7.22486 26.3739 7.27633 25.2019 7.59601C24.0299 7.91568 24.0327 6.43109 23.5514 5.31765C23.0728 4.20421 21.531 5.90011 20.7316 5.10634C19.9322 4.31258 17.0607 3.25061 16.2096 2.82799C15.3586 2.40266 14.1349 2.5625 12.8569 2.82799C11.5789 3.09348 11.2608 4.10127 10.5157 4.78938C9.77069 5.47749 8.33497 5.84864 7.58992 5.79716C6.84488 5.74298 6.20587 5.79716 4.87621 5.79716C3.54654 5.79716 3.86468 6.80495 3.01359 7.49306C2.16249 8.18117 2.48063 7.12191 1.47182 7.12191C0.463017 7.12191 1.25973 9.13478 2.11083 9.8256C2.96192 10.5137 2.85587 11.0447 3.06797 11.787C3.28006 12.5293 2.90754 13.6427 2.53501 15.1788C2.16249 16.7148 3.65259 18.0938 4.29159 18.9417C4.93059 19.7897 5.24873 19.684 5.11549 21.1144C4.98225 22.5448 5.24873 22.2279 5.14268 23.0216C5.03664 23.8154 5.24873 23.9752 5.55872 24.9288C5.8687 25.8824 5.67292 26.2021 5.56687 27.2614C5.46083 28.3206 6.31192 28.6403 6.84488 29.4341C7.37783 30.2278 7.05697 30.3362 7.10863 31.0785C7.1603 31.8208 7.42949 32.9857 7.69597 34.0477C7.96245 35.1096 7.8564 37.388 7.37783 37.9163C6.89926 38.4473 7.16574 38.8699 7.37783 39.5607C7.58992 40.2488 8.60145 41.4164 8.91959 42.1045C9.23773 42.7927 9.08002 42.7412 8.12288 43.6406C7.16574 44.5427 8.33497 45.919 8.60145 46.3958C8.86793 46.8726 9.45255 47.4035 9.66464 48.4628C9.87673 49.5221 9.98278 49.5762 10.6762 50.2129C11.3668 50.8495 10.9943 52.3856 10.9426 53.2877C10.8883 54.1898 11.1547 54.4012 11.7937 54.9321C12.4327 55.4631 12.1663 56.8393 12.2206 57.7957C12.275 58.752 13.3899 58.2725 13.3899 57.7957C13.3899 57.3189 13.3899 56.0998 13.602 55.5688C13.8141 55.0378 14.9316 54.8265 14.9316 54.0842C14.9316 53.3419 13.8685 52.0171 13.6836 51.4347C13.4987 50.8522 14.4014 49.7388 14.4531 48.8367C14.5075 47.9345 13.6156 47.1814 12.9113 46.3985C11.9406 45.3175 12.8053 44.0145 13.6564 42.901C14.5075 41.7876 13.6564 41.1509 12.8053 40.1973C11.9542 39.2437 13.2322 39.2952 13.2322 38.1845C13.2322 37.0737 12.0086 36.3287 12.3267 35.1096C12.6448 33.8905 14.241 34.8983 14.986 36.0118C15.7311 37.1252 15.8915 36.6999 17.1151 36.1174C18.3387 35.535 17.9118 36.5942 18.6052 37.9732C19.2986 39.3521 20.0953 38.8753 20.4678 38.45C20.8404 38.0246 20.8404 37.9732 22.17 38.9809C22.8444 39.4903 22.9178 39.6745 22.8933 39.7314C22.9205 39.726 22.9586 39.7232 23.0211 39.7232C23.5541 39.7232 24.7777 39.8289 25.2563 40.8882C25.7349 41.9474 25.6288 42.5841 27.3854 42.3727C29.142 42.1614 28.5546 42.5841 28.9815 44.0686C29.4084 45.5532 30.2595 45.7131 31.3744 46.5068C32.492 47.3006 32.7584 46.9322 33.343 48.3626C33.9277 49.793 35.0452 50.1126 36.3232 50.7466C37.6012 51.3832 37.3348 51.8058 37.6012 52.7594C37.8677 53.713 37.8133 54.244 38.8792 55.5146C39.9424 56.7879 40.315 57.1048 40.6358 56.0971C40.954 55.0893 39.8908 54.5068 38.9853 53.3419L38.9771 53.3392ZM19.5787 26.9607C18.975 26.855 17.3082 27.8086 16.9547 28.1987C16.6012 28.5861 15.4646 29.5072 15.0758 28.9681C14.6869 28.429 14.2247 27.9874 13.1968 28.0226C12.169 28.0579 12.3104 29.1523 11.9922 28.941C11.6741 28.7297 11.8508 28.3044 12.0983 27.1747C12.3457 26.045 12.3104 26.1859 11.2825 25.5492C10.252 24.9126 11.1765 24.5252 11.2118 23.7477C11.2472 22.9702 11.6387 23.2167 10.1079 22.2279C8.5797 21.239 9.86314 20.9546 10.078 20.2502C10.29 19.5431 9.36825 18.8009 8.72925 18.4839C8.09025 18.1669 8.48181 16.8232 8.8353 15.94C9.18879 15.0569 8.38936 15.0135 8.0549 14.3146C7.2745 12.6891 8.1963 11.7003 8.97669 11.7003C9.75709 11.7003 11.636 11.5594 12.2397 10.7115C12.8433 9.86352 13.7651 9.82831 14.3334 9.89874C14.9017 9.96918 15.6114 10.5002 16.4272 10.2509C17.2429 10.0044 17.5257 10.3918 17.7759 11.2397C18.0233 12.0877 18.8391 12.2286 19.372 11.806C19.905 11.3806 19.905 11.4538 20.5766 11.6299C21.2482 11.806 21.0742 12.513 21.3217 13.5371C21.5691 14.5611 22.3849 15.2682 22.9532 15.6935C23.5215 16.1188 23.342 16.7528 22.8825 17.4951C22.4202 18.2374 22.9178 18.3782 23.0946 18.5543C23.2713 18.7304 23.7336 19.6136 23.6982 20.2854C23.6629 20.9573 23.3447 21.6292 22.5643 22.0166C21.7839 22.404 21.5718 23.2898 21.5365 23.8181C21.5011 24.3464 21.7132 25.1266 21.2183 26.1859C20.7207 27.2451 20.1905 27.069 19.5868 26.9634L19.5787 26.9607Z" stroke="#0F1E21" stroke-width="2" mask="url(#path-6-outside-1_4_118)"/>
<path d="M85.598 27.0716C86.0487 26.8455 86.4675 27.0525 86.7142 27.2933C86.9595 27.5326 87.1309 27.8758 87.2142 28.223L87.2426 28.3616C87.2964 28.6923 87.2762 29.0611 87.2562 29.3597C87.2369 29.6495 87.2179 29.8789 87.2181 30.0579L87.225 30.22L87.226 30.223L87.2924 30.763C87.3225 30.9916 87.3581 31.2578 87.3949 31.5267L87.5707 32.8392V32.8421L87.6185 33.1575C87.68 33.4715 87.7824 33.7815 87.9291 34.0775L87.9847 34.2015C88.1 34.4942 88.1235 34.802 88.1127 35.0677C88.1001 35.3756 88.0392 35.6667 87.9808 35.886C87.9839 35.8746 87.974 35.9152 87.9984 36.0296C88.0205 36.1331 88.0629 36.2598 88.1234 36.3948C88.25 36.6772 88.4182 36.9167 88.5414 37.0228L88.7006 37.1683C88.8456 37.3134 88.9505 37.4611 89.0219 37.6487C89.0632 37.7576 89.0886 37.8671 89.1088 37.9622C89.1305 38.0645 89.1489 38.1622 89.1801 38.2923L89.2084 38.4251C89.2629 38.7305 89.2508 39.0152 89.2328 39.2776C89.2115 39.5875 89.1813 39.869 89.1937 40.22L89.2084 40.4661C89.2278 40.6981 89.261 40.8928 89.2992 41.0921C89.3502 41.358 89.4152 41.6565 89.4574 42.0394L89.4662 42.1194C89.4838 42.2576 89.5056 42.4005 89.5306 42.5569C89.5597 42.7383 89.5906 42.9371 89.6078 43.136C89.642 43.531 89.6289 43.9913 89.3988 44.4232V44.4241C89.2378 44.7247 89.0037 44.9443 88.7054 45.0394C88.4144 45.132 88.1321 45.0837 87.9086 44.9876C87.6865 44.8921 87.4948 44.7389 87.3539 44.5696C87.2195 44.4082 87.0901 44.182 87.0746 43.9251V43.9222C87.0643 43.7331 87.045 43.6703 87.0082 43.597C86.9525 43.4865 86.853 43.3496 86.6146 43.0276C86.4836 42.8507 86.3876 42.6847 86.3295 42.512C86.2688 42.3316 86.2596 42.1738 86.264 42.0355C86.2703 41.8395 86.2948 41.7115 86.2826 41.5071L86.2562 41.2718C86.204 40.9392 86.001 40.4663 85.725 39.9739C85.5227 39.6131 85.2985 39.272 85.1068 39.012L84.9281 38.7806C84.8717 38.712 84.827 38.6618 84.7924 38.6243C84.7664 38.6465 84.7368 38.6708 84.7045 38.7005L84.514 38.8802C84.2536 39.1277 84.1202 39.3198 84.0414 39.5003C83.9611 39.6842 83.9213 39.8919 83.8959 40.2025C83.8836 40.3596 83.8815 40.4605 83.8754 40.5745C83.87 40.6751 83.8611 40.8052 83.8177 40.9388C83.7484 41.152 83.6093 41.3145 83.4467 41.4691L83.2777 41.6224C83.1729 41.7156 83.1349 41.768 83.1205 41.7933C83.1116 41.8088 83.1054 41.8234 83.1019 41.8655C83.0968 41.9279 83.1006 41.9988 83.1058 42.1556C83.1106 42.2996 83.114 42.4814 83.099 42.7093L83.1 42.7103C83.0659 43.2514 82.8694 43.5591 82.7113 43.7894C82.6079 43.94 82.5533 44.0179 82.5297 44.1204L82.515 44.2357C82.4979 44.6529 82.3456 45.1112 81.8949 45.3216C81.5329 45.4906 81.1222 45.4254 80.7386 45.2689L80.5756 45.1966C80.3105 45.0692 80.0511 44.8538 80.0004 44.5013C79.9565 44.196 80.0988 43.9343 80.1947 43.7816C80.2965 43.6194 80.4431 43.4381 80.5424 43.3069C80.6222 43.2015 80.6849 43.1094 80.7328 43.0267C80.5353 42.951 80.2269 42.8067 79.9965 42.5071L79.9945 42.5042C79.8883 42.3645 79.7843 42.2182 79.723 42.0628C79.6485 41.8735 79.6469 41.7002 79.682 41.5325C79.7083 41.4071 79.7653 41.2539 79.8041 41.138C79.8498 41.0012 79.9042 40.8251 79.9594 40.5804L80.0492 40.2278C80.1468 39.904 80.2754 39.6682 80.5111 39.5257C80.7941 39.3546 80.684 39.4942 80.7982 39.348L80.8793 39.2288C80.9493 39.1109 80.9901 38.9901 81.0345 38.8265C81.0953 38.603 81.1656 38.2863 81.347 37.9046C81.637 37.2944 81.7174 36.8938 81.7953 36.5511L81.851 36.2776C81.8655 36.184 81.8734 36.0856 81.8685 35.9769C81.8592 35.7687 81.7994 35.5032 81.5941 35.181V35.18C81.4382 34.9345 81.342 34.6937 81.3099 34.4525C81.2774 34.2071 81.3146 33.9903 81.3822 33.803C81.4467 33.6244 81.5398 33.4718 81.6107 33.3587C81.6905 33.2316 81.7392 33.1588 81.7758 33.0814L81.7767 33.0794L81.8705 32.8948C81.9667 32.7146 82.0697 32.5458 82.1654 32.386C82.2963 32.1675 82.4241 31.9479 82.5453 31.6829L82.6556 31.4612C82.7721 31.2489 82.9141 31.0668 83.1342 30.9427C83.2682 30.8671 83.4071 30.8272 83.5297 30.7982C83.644 30.7711 83.7965 30.7424 83.9369 30.7132C84.0217 30.6956 84.0785 30.6769 84.1156 30.6634C84.1206 30.6304 84.1284 30.583 84.1439 30.5306C84.1446 30.5279 84.1465 30.5217 84.1488 30.512C84.152 30.4985 84.156 30.481 84.1605 30.4593C84.1698 30.415 84.1803 30.3577 84.1927 30.2903C84.2177 30.1558 84.2473 29.9857 84.2767 29.803C84.3361 29.4348 84.3937 29.0298 84.4193 28.7679L84.4408 28.6204C84.5047 28.2821 84.668 27.9739 84.85 27.7298C85.0561 27.4535 85.3248 27.2086 85.598 27.0726V27.0716ZM85.0463 33.1976C85.0304 33.1974 85.009 33.2016 84.9799 33.2161C84.9676 33.2223 84.9571 33.2318 84.9457 33.2396C84.9075 33.384 84.8518 33.5347 84.7953 33.6673C84.7496 33.7746 84.6975 33.8853 84.6429 33.9944L84.473 34.3118C84.4064 34.4284 84.3432 34.5163 84.3011 34.5755C84.2857 34.5972 84.2755 34.6132 84.2679 34.6243C84.2723 34.6472 84.2794 34.6877 84.3011 34.7523C84.3728 34.9652 84.4152 35.1577 84.4056 35.3489C84.4647 35.359 84.5271 35.3716 84.5931 35.387L84.7826 35.4368L84.9623 35.4935C85.3151 35.6135 85.5055 35.7328 85.5892 35.7796C85.6198 35.7735 85.6809 35.7599 85.7933 35.722L85.809 35.7161C85.7951 35.6755 85.7728 35.62 85.7338 35.5501C85.7071 35.5024 85.6773 35.4536 85.6449 35.4036L85.5414 35.2503C85.4749 35.154 85.4181 35.0795 85.3539 34.9935C85.2936 34.9127 85.224 34.8175 85.1644 34.7083C85.0321 34.4655 84.975 34.2062 84.975 33.8528C84.975 33.5935 85.0523 33.3621 85.1117 33.2191C85.0757 33.2011 85.0553 33.1977 85.0463 33.1976ZM84.8773 33.2933L84.8763 33.2952L84.8802 33.2913L84.8812 33.2894L84.8773 33.2933Z" fill="#11CCAB" stroke="#0F1E21"/>
<path d="M97.7143 29.5341C98.0159 29.5366 98.2394 29.7041 98.3773 29.874C98.6073 30.1575 98.7117 30.5691 98.7006 30.9609L98.6889 31.1269C98.6143 31.7776 98.3891 32.5696 98.1674 33.1093L98.0727 33.3242C98.017 33.4419 97.9923 33.6379 98.0102 33.9863C98.0187 34.153 98.0351 34.3345 98.0541 34.541C98.0728 34.7441 98.0934 34.9678 98.1068 35.2031L98.1195 35.5302C98.1246 35.8319 98.1067 36.0658 98.0609 36.2998C98.0331 36.4422 97.9937 36.587 97.9477 36.7431L97.7943 37.2539C97.6514 37.7444 97.472 37.9926 97.3022 38.1894C97.1953 38.3132 97.1401 38.3695 97.0971 38.4589L97.0561 38.5634C97.032 38.639 97.0081 38.7885 96.9955 39.0205C96.9834 39.2427 96.983 39.5077 96.9897 39.7949C97.003 40.372 97.0443 40.9998 97.0707 41.5126C97.0839 41.7691 97.0863 41.996 97.0619 42.1816C97.0393 42.3534 96.9815 42.599 96.7777 42.7724C96.5588 42.9587 96.3013 42.9551 96.143 42.9345C96.0633 42.9241 95.9789 42.9053 95.8949 42.8828L95.6479 42.8085C95.3822 42.724 95.1718 42.5691 95.0395 42.3418C94.9175 42.1321 94.8912 41.9099 94.8852 41.7451C94.8798 41.5988 94.8916 41.3948 94.893 41.3007C94.8939 41.2366 94.8918 41.1864 94.8881 41.1464L94.8715 41.0537C94.8149 40.8759 94.6705 40.615 94.4789 40.3603C94.3327 40.1659 94.1883 40.0134 94.0756 39.9199L93.974 39.8466C93.6959 39.6807 93.4428 39.4027 93.2494 39.1777C93.1386 39.0487 93.0449 38.9344 92.9613 38.8349L92.7328 38.5791C92.6097 38.4564 92.4876 38.2762 92.3881 38.124C92.273 37.9479 92.1754 37.7893 92.0609 37.6191C92.0154 37.5514 91.9714 37.4909 91.9311 37.4365L91.9047 37.7656C91.8589 38.1813 91.9656 38.4361 92.1039 38.5468L92.2191 38.6552C92.4609 38.9191 92.5084 39.2554 92.5033 39.5078C92.5004 39.6525 92.4796 39.7979 92.4535 39.9316L92.3695 40.2851C92.3316 40.4275 92.2987 40.7831 92.2699 41.1796C92.2567 41.3617 92.2452 41.5471 92.2338 41.6875C92.228 41.758 92.2211 41.8255 92.2143 41.8808C92.2109 41.9081 92.2072 41.9391 92.2016 41.9687V42.0234L92.1547 42.124C91.9668 42.5266 91.6421 42.9259 91.1938 43.039C90.9498 43.1005 90.691 43.0686 90.4604 42.9257C90.296 42.8239 90.1662 42.6782 90.0639 42.5097L89.9701 42.3339C89.866 42.1099 89.8052 41.903 89.7953 41.6972C89.7853 41.4865 89.8306 41.3161 89.8783 41.1796C89.9696 40.9187 90.0467 40.8009 90.057 40.4892L90.0551 40.415C89.9387 40.3833 89.7797 40.3273 89.6342 40.2216L89.5131 40.1181C89.317 39.9227 89.2391 39.683 89.2133 39.4668C89.1884 39.2585 89.2083 39.0422 89.2348 38.8515C89.2942 38.4245 89.3814 38.0929 89.394 37.6972L89.4037 37.5224C89.4187 37.3551 89.4482 37.2094 89.4975 37.082C89.5701 36.8943 89.6741 36.7757 89.7729 36.6904C89.7938 36.6723 89.8135 36.6565 89.8275 36.6455C89.836 36.6388 89.8413 36.6336 89.8461 36.6298C89.8471 36.6248 89.8498 36.6186 89.851 36.6113C89.8821 36.4127 89.9491 36.264 90.0004 36.1562C90.0535 36.0445 90.0798 35.9933 90.101 35.9189C90.1323 35.8086 90.1637 35.5927 90.0531 35.0878L89.9965 34.8535C89.801 34.1029 89.8025 33.6845 89.9613 33.3134C90.1116 32.9626 90.1811 32.9911 90.2231 32.6396L90.2426 32.4003C90.244 32.3389 90.2409 32.2937 90.2367 32.2597C90.2296 32.2011 90.2167 32.1599 90.1889 32.0957C90.1246 31.9475 90.0082 31.7371 89.9184 31.3183L89.8813 31.1259C89.8393 30.8758 89.8196 30.5768 89.9545 30.333C90.0348 30.1881 90.1608 30.0786 90.3178 30.0234C90.4604 29.9733 90.5951 29.9795 90.6898 29.9941C90.8684 30.0217 91.0437 30.1033 91.1508 30.1543C91.2907 30.2209 91.3594 30.2575 91.4203 30.2793L91.5258 30.3222C92.0454 30.5575 92.4621 31.1271 92.4975 31.7832L92.5248 32.0781C92.5374 32.1717 92.5533 32.2686 92.5746 32.3906C92.6183 32.6402 92.68 32.9791 92.7602 33.5712L92.8148 33.8906V33.8916C92.9176 33.8704 93.0585 33.8462 93.2201 33.8544L93.4106 33.8662C93.6056 33.8825 93.8084 33.9167 93.9867 34.0126C94.2577 34.1586 94.3943 34.3983 94.4975 34.6171L94.5756 34.7978C94.6076 34.8801 94.6316 34.962 94.6557 35.0429C94.6789 34.9574 94.7037 34.8705 94.7299 34.7841C94.8545 34.374 95.0123 33.9427 95.1225 33.6669L95.224 33.4365C95.3351 33.2024 95.4695 32.9634 95.5717 32.7734C95.6446 32.6377 95.7023 32.5253 95.7416 32.4355C95.7659 32.38 95.7748 32.3508 95.7777 32.3418V32.3681C95.7777 32.2627 95.8043 32.1571 95.8236 32.0878C95.8465 32.006 95.8779 31.9145 95.9135 31.8203C95.9849 31.631 96.0822 31.406 96.1938 31.1767C96.4104 30.7315 96.708 30.2078 96.9965 29.8876C97.1716 29.6934 97.4146 29.5317 97.7143 29.5341Z" fill="#11CCAB" stroke="#0F1E21"/>
<path d="M104.786 24.6022C105.078 24.6022 105.355 24.644 105.583 24.7731C105.837 24.9168 105.981 25.1396 106.037 25.3844C106.087 25.6025 106.065 25.8244 106.035 26.0007C106.005 26.1786 105.956 26.3764 105.918 26.5397C105.808 27.0156 105.5 27.3981 105.323 27.652C105.125 27.9377 105.02 28.1402 105.02 28.3883C105.02 28.8199 105.022 29.0088 105.058 29.1716C105.089 29.3138 105.153 29.4601 105.344 29.7653C105.407 29.8669 105.476 29.9361 105.549 29.9958C105.589 30.0284 105.627 30.0561 105.676 30.0924C105.719 30.1243 105.78 30.1703 105.837 30.2233C105.97 30.3474 106.113 30.5467 106.099 30.8395C106.09 31.0124 106.027 31.1789 105.944 31.3346L105.783 31.6139C105.614 31.9289 105.451 32.3671 105.32 32.7702C105.248 32.9941 105.189 33.1965 105.148 33.3424C105.128 33.415 105.112 33.4734 105.102 33.5133C105.096 33.5333 105.093 33.5491 105.09 33.5592C105.089 33.564 105.088 33.5676 105.087 33.57C105.087 33.5712 105.086 33.5724 105.086 33.5729V33.5739L105.085 33.5729C105.007 33.9583 104.865 34.3083 104.741 34.6471C104.644 34.9155 104.543 35.2148 104.457 35.5934L104.376 36.0007C104.167 37.2261 104.13 37.9808 104.363 38.7692L104.527 39.3229C104.667 39.7784 104.76 39.9966 105.038 40.4948L105.208 40.8278C105.384 41.1939 105.571 41.6462 105.725 42.0495C105.828 42.3219 105.92 42.5818 105.987 42.7897C106.021 42.8929 106.049 42.9881 106.069 43.068C106.08 43.1099 106.094 43.1777 106.103 43.2487C106.111 43.2659 106.123 43.291 106.145 43.3307C106.193 43.4206 106.277 43.5735 106.334 43.7448C106.393 43.9198 106.438 44.1531 106.378 44.4089C106.324 44.6413 106.194 44.8454 105.999 45.0163L105.912 45.0876C105.754 45.2074 105.629 45.3121 105.503 45.4137C105.389 45.5057 105.254 45.6115 105.113 45.6842C104.96 45.7635 104.757 45.8259 104.523 45.7751C104.359 45.7395 104.223 45.6578 104.11 45.5641L104.005 45.4674C103.921 45.3835 103.851 45.3238 103.779 45.2624C103.713 45.2055 103.623 45.1281 103.542 45.0329C103.355 44.8125 103.269 44.5553 103.208 44.1901L103.06 43.4313C103.016 43.2043 102.983 42.9841 102.983 42.7028C102.983 42.6001 102.987 42.4323 102.987 42.3591C102.987 42.3392 102.985 42.3204 102.984 42.3024C102.934 42.6332 102.872 42.9624 102.719 43.2409C102.538 43.5702 102.262 43.7823 101.892 43.9333C101.793 43.9734 101.743 44.0072 101.704 44.0368C101.68 44.0548 101.559 44.159 101.419 44.2184C101.257 44.2871 101.087 44.3013 100.904 44.2936C100.814 44.2898 100.711 44.2797 100.592 44.2643L100.182 44.2008C99.9055 44.1532 99.6802 44.1385 99.4854 44.1325C99.3123 44.1271 99.0914 44.1287 98.9249 44.1139C98.7325 44.0969 98.5231 44.0546 98.3135 43.9294C98.1092 43.8072 97.944 43.6303 97.7921 43.4108V43.4098C97.7215 43.3089 97.6752 43.2947 97.6612 43.2897C97.6448 43.284 97.6246 43.2794 97.5821 43.2721C97.5583 43.2681 97.4608 43.2542 97.376 43.2253C97.2682 43.1884 97.1233 43.1105 97.0245 42.946C96.9366 42.7994 96.9232 42.6449 96.9249 42.5339C96.928 42.3218 96.9951 42.0361 97.0997 41.6657H97.0987C97.3119 40.9073 97.4092 40.5091 97.4473 40.2194C97.4737 40.0188 97.472 39.8676 97.4532 39.6608L97.4288 39.4313C97.4097 39.2673 97.3865 39.1247 97.3643 38.9792C97.3431 38.8401 97.3217 38.6904 97.3155 38.5436C97.3018 38.2208 97.3627 37.9021 97.6046 37.5788L97.7012 37.4382C97.7342 37.3878 97.7687 37.3337 97.8057 37.2741C97.8764 37.1602 97.9592 37.0246 98.0508 36.8942C98.237 36.6295 98.4906 36.3394 98.8799 36.154L99.0645 36.0592C99.4832 35.8292 99.8329 35.5309 100.486 35.0798L100.635 34.9831C100.778 34.8955 100.904 34.8335 101.007 34.7839C101.16 34.7098 101.208 34.6858 101.242 34.6598C101.248 34.6558 101.248 34.6608 101.255 34.6374C101.27 34.5904 101.288 34.4847 101.281 34.2594C101.268 33.793 101.199 33.5351 101.158 33.1803C101.118 32.8299 101.13 32.4658 101.39 32.0661C101.596 31.7489 101.785 31.5105 101.979 31.1803C102.158 30.8735 102.275 30.5872 102.294 30.3141L102.343 29.652C102.357 29.5141 102.377 29.3752 102.431 28.9841L102.502 28.4108C102.576 27.8056 102.671 27.1205 102.913 26.5085C102.984 26.3272 103.031 26.1734 103.108 25.9606C103.178 25.7686 103.264 25.553 103.387 25.3551C103.513 25.1525 103.684 24.9564 103.929 24.8141C104.175 24.6713 104.461 24.6022 104.786 24.6022ZM101.907 38.0036C101.838 38.0277 101.736 38.0836 101.614 38.1745C101.488 38.2686 101.368 38.3771 101.278 38.4655C101.234 38.509 101.199 38.5464 101.175 38.5719C101.163 38.5845 101.154 38.5941 101.148 38.6003C101.146 38.6033 101.144 38.6059 101.143 38.6071L101.142 38.6081L101.138 38.613H101.137L101.136 38.6139C101.135 38.6153 101.133 38.6179 101.13 38.6208C101.125 38.6265 101.117 38.6351 101.107 38.6462C101.087 38.6687 101.058 38.7016 101.023 38.7419C100.952 38.8227 100.858 38.9329 100.764 39.0495C100.668 39.1673 100.576 39.2861 100.508 39.3864C100.474 39.4365 100.45 39.4758 100.435 39.5036C100.432 39.5093 100.429 39.5138 100.427 39.5173C100.362 39.8258 100.322 39.9307 100.402 40.1178C100.467 40.2668 100.47 40.4115 100.458 40.5231C100.449 40.6086 100.426 40.687 100.405 40.7526C100.751 40.6947 100.971 40.5644 101.12 40.4284C101.297 40.2672 101.402 40.0734 101.485 39.8942L101.486 39.8923L101.894 40.0837L101.487 39.8923C101.554 39.7503 101.624 39.6492 101.684 39.571C101.751 39.4827 101.765 39.4704 101.787 39.4342C101.802 39.4107 101.845 39.3398 101.861 39.0495L101.863 38.9762C101.87 38.7492 101.895 38.5664 101.918 38.4196C101.944 38.2573 101.958 38.1882 101.963 38.1188C101.965 38.0932 101.964 38.0806 101.963 38.0758C101.963 38.0735 101.962 38.0726 101.962 38.0719C101.961 38.0694 101.949 38.049 101.907 38.0036Z" fill="#11CCAB" stroke="#0F1E21"/>
<path d="M140.488 0.578127C141.104 0.402949 141.723 0.521618 142.084 1.00098C142.414 1.43941 142.405 2.0186 142.155 2.55664L142.034 2.78418C141.753 3.2466 141.325 4.09044 140.938 5.04492C140.599 5.88313 140.303 6.77776 140.16 7.55469L140.109 7.87988C139.989 8.80132 139.739 9.77927 139.588 10.5781C139.428 11.4247 139.368 12.1063 139.522 12.6357L139.658 13.0762C139.982 14.0723 140.346 14.8946 140.551 16.2647C140.67 17.065 140.691 17.8225 140.689 18.5156C140.688 19.2242 140.664 19.829 140.689 20.3965L140.719 20.7891C140.812 21.6727 141.082 22.3251 141.495 22.8125L141.613 22.959C142.192 23.7182 142.605 24.8565 142.541 25.9336C142.524 26.212 142.472 26.5599 142.425 26.8945C142.376 27.2422 142.329 27.5972 142.313 27.9336C142.298 28.2738 142.316 28.5626 142.377 28.7842C142.436 28.9993 142.525 29.1113 142.628 29.1729L142.959 29.3701C143.063 29.4329 143.159 29.4932 143.242 29.5498C143.412 29.6664 143.593 29.8138 143.712 30.0313C143.836 30.2585 143.858 30.4991 143.84 30.7383C143.822 30.9679 143.764 31.2361 143.684 31.5459C143.514 32.2149 143.416 32.4932 143.383 32.7647C143.357 32.9758 143.373 33.1729 143.516 33.6064L143.723 34.1924C143.783 34.3664 143.84 34.5464 143.871 34.7383C143.929 35.1011 143.882 35.4467 143.728 35.8809L143.656 36.0723C143.545 36.3505 143.395 36.6153 143.254 36.8594C143.107 37.1121 142.967 37.3458 142.844 37.5996C142.604 38.0907 142.44 38.627 142.516 39.3242L142.551 39.5781C142.639 40.1209 142.786 40.3368 142.918 40.499C143.093 40.7138 143.425 41.0039 143.617 41.6201L143.68 41.8486C143.738 42.0891 143.783 42.3598 143.823 42.6318C143.85 42.816 143.875 43.0084 143.9 43.2002C143.926 43.3933 143.951 43.5867 143.978 43.7773C144.034 44.1613 144.095 44.5205 144.176 44.8242C144.259 45.1377 144.35 45.342 144.435 45.4531L144.513 45.542C144.592 45.6245 144.681 45.6901 144.783 45.7539C144.857 45.8006 144.922 45.8366 145.01 45.8887C145.089 45.936 145.183 45.9938 145.273 46.0635C145.467 46.2135 145.647 46.422 145.731 46.7393C145.79 46.9606 145.796 47.2077 145.76 47.4854L145.709 47.7725C145.626 48.1646 145.524 48.4714 145.434 48.7246C145.341 48.9882 145.278 49.1553 145.239 49.3262C145.177 49.6003 145.173 49.9073 145.496 50.5967L145.738 51.085C145.967 51.5219 146.159 51.8157 146.316 52.0557C146.523 52.3719 146.722 52.6652 146.812 53.084L146.914 53.4678C146.949 53.5907 146.988 53.733 147.013 53.8857C147.059 54.1783 147.042 54.4756 146.925 54.8447L146.868 55.0068C146.801 55.1848 146.736 55.3961 146.66 55.6221C146.591 55.829 146.508 56.0663 146.419 56.2363C146.382 56.3062 146.305 56.4478 146.17 56.5449C146.091 56.6018 145.955 56.6698 145.779 56.6514C145.602 56.6327 145.481 56.5366 145.413 56.46C145.297 56.3297 145.247 56.1602 145.22 56.0518C145.203 55.9861 145.188 55.9125 145.175 55.8311L145.137 55.5625C145.045 54.7829 145.014 54.3353 144.917 53.9854C144.846 53.7317 144.746 53.5562 144.526 53.377L144.425 53.2998C144.289 53.203 144.129 53.1339 143.938 53.0654C143.772 53.0058 143.52 52.928 143.321 52.8281C143.101 52.7176 142.859 52.5431 142.721 52.2344C142.587 51.9365 142.585 51.5933 142.661 51.2188L142.769 50.7559C142.805 50.6194 142.84 50.4999 142.869 50.3975C142.93 50.178 142.955 50.0672 142.956 49.9824C142.957 49.913 142.957 49.7981 142.617 49.4775L142.449 49.3262C142.196 49.1083 141.973 48.9218 141.803 48.7617C141.63 48.5994 141.471 48.4276 141.359 48.2197C141.122 47.7767 141.176 47.3057 141.28 46.7295L141.326 46.499C141.375 46.2763 141.431 46.0793 141.475 45.9121C141.537 45.6801 141.576 45.5101 141.586 45.3486C141.6 45.1092 141.555 44.8284 141.237 44.376L141.084 44.1709C140.587 43.5453 139.944 42.7764 139.432 41.9834C138.926 41.1982 138.49 40.3057 138.482 39.416C138.475 38.6433 138.57 38.1558 138.6 37.8105C138.626 37.5226 138.621 37.2437 138.487 36.7627L138.422 36.543C138.215 35.8963 138.021 35.4937 137.844 35.1104C137.685 34.7673 137.536 34.4332 137.424 33.9814L137.378 33.7803C137.249 33.1575 137.373 32.512 137.543 31.9053C137.629 31.5978 137.734 31.2802 137.836 30.9678C137.939 30.6514 138.039 30.3353 138.127 30.0127C138.223 29.6593 138.333 29.3353 138.433 29.043C138.536 28.745 138.625 28.4868 138.69 28.2393C138.802 27.8169 138.833 27.4664 138.732 27.1094L138.681 26.9561C138.493 26.4676 138.344 26.2818 138.184 26.1172C138.029 25.9569 137.791 25.7548 137.505 25.3877L137.38 25.2197C137.141 24.8864 137.066 24.4664 137.039 24.0967C137.012 23.719 137.03 23.3023 137.043 22.9395C137.056 22.5577 137.062 22.2336 137.025 21.9727C136.997 21.7695 136.951 21.6674 136.914 21.6172L136.881 21.583C136.751 21.4827 136.68 21.4771 136.662 21.4775C136.652 21.4778 136.625 21.4791 136.58 21.5273C136.468 21.6466 136.339 21.9606 136.36 22.4473L136.365 22.6875C136.364 23.2898 136.287 24.1637 136.239 24.9522C136.211 25.4177 136.192 25.8662 136.198 26.252C136.204 26.6507 136.237 26.9329 136.289 27.0918L136.417 27.5147C136.547 27.9842 136.678 28.5771 136.741 29.1582C136.783 29.5452 136.797 29.9453 136.755 30.3086C136.719 30.6176 136.636 30.9478 136.453 31.2188L136.368 31.3311C136.187 31.545 135.952 31.7509 135.734 31.9395C135.506 32.137 135.284 32.3242 135.08 32.5273C134.667 32.9383 134.426 33.3222 134.428 33.7529C134.433 35.0146 134.411 36.8837 134.077 38.1914C133.884 38.946 133.498 39.3017 133.251 39.584C133.132 39.7197 133.044 39.8378 132.975 39.9912C132.907 40.1452 132.847 40.3622 132.828 40.6992V40.7002C132.785 41.4427 132.81 42.3081 132.848 42.9961C132.867 43.3381 132.889 43.6329 132.906 43.8418C132.915 43.9462 132.921 44.0295 132.927 44.0859C132.929 44.1142 132.931 44.136 132.932 44.1504C132.933 44.1573 132.934 44.1625 132.934 44.166V44.1709L132.949 44.3164L132.883 44.4473V44.4482L132.879 44.4561C132.876 44.4605 132.873 44.4663 132.869 44.4736C132.861 44.4883 132.85 44.5086 132.836 44.5332C132.808 44.5822 132.769 44.6496 132.72 44.7256C132.625 44.8714 132.477 45.077 132.293 45.2402C132.129 45.3855 131.806 45.6115 131.405 45.5078C131.056 45.4173 130.842 45.1264 130.703 44.8037L130.648 44.6641C130.379 43.9164 130.355 43.4058 130.323 43.001C130.298 42.6757 130.269 42.4295 130.105 42.1084L130.027 41.9658C129.855 41.6735 129.774 41.4338 129.742 41.2246C129.729 41.1427 129.725 41.0718 129.723 41.0156C129.644 40.9807 129.511 40.9273 129.285 40.8545C129.004 40.7642 128.753 40.7263 128.509 40.6904C128.295 40.6591 127.998 40.6222 127.759 40.501C127.623 40.4322 127.494 40.3326 127.391 40.1885C127.291 40.0468 127.233 39.8863 127.203 39.7197C127.146 39.4036 127.179 39.0041 127.265 38.5127L127.362 37.8857C127.433 37.3376 127.428 37.0085 127.375 36.7227C127.299 36.3157 127.128 35.9768 126.81 35.2012C126.29 33.931 125.985 33.23 125.693 32.2041L125.568 31.7422C125.413 31.1376 125.23 30.6788 125.068 30.2041C124.91 29.7412 124.774 29.269 124.78 28.7295L124.778 28.6074C124.765 28.341 124.695 28.1996 124.592 28.0645C124.52 27.9706 124.426 27.8733 124.291 27.7412C124.162 27.6147 123.998 27.4589 123.821 27.2715C123.438 26.865 123.292 26.5796 123.171 26.3066C123.093 26.1314 123.035 25.9855 122.91 25.7959L122.759 25.5889C122.482 25.239 122.162 24.8382 121.917 24.4209C121.672 24.0031 121.471 23.5173 121.482 22.9873L121.491 22.8086C121.505 22.6321 121.532 22.4615 121.558 22.3076C121.596 22.09 121.63 21.9142 121.649 21.7412C121.682 21.443 121.651 21.2846 121.565 21.1729L121.526 21.127C121.502 21.103 121.484 21.0917 121.473 21.085C121.46 21.0922 121.439 21.1065 121.41 21.1348C121.263 21.2791 121.086 21.6142 120.987 22.1025C120.919 22.437 120.777 22.7559 120.633 23.0449C120.472 23.3664 120.336 23.5991 120.187 23.9111C119.914 24.4838 119.745 25.0355 119.88 25.6641L119.935 25.8721C119.994 26.0485 120.06 26.1378 120.113 26.1943C120.155 26.2388 120.202 26.2777 120.27 26.3301C120.331 26.3767 120.431 26.4497 120.521 26.5342C120.735 26.7332 120.902 26.9943 120.986 27.4102C121.045 27.7016 121.062 28.0686 121.036 28.5449L120.995 29.0596C120.846 30.5204 120.68 31.3558 120.544 32.1397C120.41 32.9111 120.302 33.6481 120.258 34.9473C120.213 36.2816 120.151 37.2965 120.101 38.1113C120.064 38.7259 120.034 39.2182 120.02 39.6484L120.014 40.0605C120.012 40.636 119.955 41.2224 119.856 41.7217C119.775 42.1344 119.653 42.5545 119.47 42.8496L119.388 42.9688C119.249 43.1455 119.059 43.2615 118.935 43.3369C118.791 43.4253 118.679 43.4896 118.566 43.5801C118.399 43.7146 118.216 43.919 118.117 44.3486L118.08 44.5479C117.862 46.0332 117.512 46.7964 117.83 48.3086L117.893 48.5859C117.959 48.8546 118.031 49.0962 118.102 49.3213C118.194 49.6116 118.295 49.9054 118.364 50.1719C118.494 50.6744 118.537 51.1662 118.314 51.7236L118.203 51.9668C118.065 52.2309 117.947 52.4366 117.86 52.5947C117.771 52.7576 117.713 52.872 117.67 52.9863C117.608 53.149 117.565 53.3391 117.538 53.6982L117.516 54.1191C117.493 54.8232 117.326 55.7683 117.031 56.3877C116.955 56.5463 116.862 56.7053 116.744 56.8369C116.628 56.9666 116.457 57.1032 116.227 57.1484C115.712 57.2498 115.354 56.849 115.141 56.4951L115.219 56.4482L115.129 56.4727L115.123 56.4619L115.502 56.2529L115.077 56.2773L115.076 56.2764V56.2637C115.076 56.2547 115.074 56.2409 115.073 56.2236C115.071 56.1891 115.069 56.1385 115.065 56.0742C115.058 55.9449 115.047 55.7597 115.035 55.5371C115.01 55.0917 114.978 54.4947 114.947 53.8916C114.916 53.2892 114.886 52.6784 114.867 52.2041C114.857 51.9672 114.851 51.7615 114.848 51.6074C114.846 51.5308 114.845 51.4629 114.846 51.4092C114.846 51.3773 114.846 51.2935 114.86 51.2236L114.859 51.1553C114.855 51.1056 114.845 51.0382 114.823 50.9551C114.79 50.8305 114.735 50.6775 114.645 50.5049L114.545 50.3262C114.086 49.5703 114.154 48.474 114.6 47.6504L114.73 47.3994C114.849 47.1558 114.932 46.9323 114.958 46.6992C114.987 46.444 114.951 46.1431 114.757 45.7647L114.663 45.5967C114.282 44.9639 113.958 43.7802 113.833 42.5879C113.708 41.4028 113.761 40.0487 114.273 39.1191L114.454 38.8125C114.636 38.5228 114.823 38.2801 115 38.0635C115.246 37.7621 115.439 37.5502 115.621 37.2988C115.944 36.8516 116.189 36.3322 116.19 35.293L116.181 34.8955C116.14 33.9838 115.958 33.1746 115.753 32.3545C115.521 31.4274 115.251 30.4606 115.173 29.375H115.172C115.101 28.3873 115 27.5846 115.042 26.8701C115.086 26.1106 115.288 25.4263 115.794 24.5977C116.668 23.1652 116.905 21.7583 116.955 20.5898L116.987 19.6533C116.998 19.3321 117.01 19.0097 117.03 18.7109C117.069 18.1257 117.139 17.5194 117.324 17.1025L117.395 16.9561C117.575 16.6221 117.837 16.3577 118.19 16.2617C118.381 16.2098 118.566 16.2172 118.737 16.2637C118.741 16.2456 118.745 16.2272 118.75 16.209C118.799 16.0113 118.897 15.6848 119.149 15.4648C119.29 15.3422 119.469 15.2616 119.678 15.2471C119.877 15.2332 120.073 15.2815 120.259 15.3633L120.392 15.4287C120.695 15.5914 120.935 15.8214 121.121 16.0342C121.187 16.1099 121.251 16.1901 121.31 16.2676C121.344 16.0459 121.375 15.8339 121.403 15.627C121.445 15.3196 121.487 15.0177 121.546 14.7344C121.664 14.16 121.856 13.616 122.296 13.1348L122.395 13.0186C122.613 12.7499 122.716 12.4999 122.795 12.1621C122.843 11.956 122.881 11.7215 122.927 11.4219C122.972 11.1267 123.024 10.7783 123.1 10.3682L123.211 9.81153C123.323 9.29431 123.445 8.88775 123.631 8.55176C123.895 8.07372 124.262 7.77901 124.758 7.47363C125.028 7.30713 125.308 7.19213 125.585 7.17383C125.881 7.15429 126.165 7.24811 126.375 7.47363C126.569 7.68225 126.651 7.95384 126.68 8.20996C126.701 8.40552 126.694 8.61768 126.663 8.83887L126.624 9.06348C126.561 9.37318 126.422 9.78137 126.268 10.209C126.109 10.6523 125.928 11.1318 125.757 11.6328C125.586 12.1309 125.431 12.6281 125.331 13.085C125.229 13.5486 125.19 13.9352 125.224 14.2227L125.26 14.4385C125.3 14.6347 125.359 14.7762 125.421 14.8867C125.505 15.0367 125.611 15.1547 125.753 15.292C126.038 15.569 126.475 15.9188 126.707 16.6631L126.777 16.9277C126.907 17.5231 126.808 17.9667 126.726 18.375C126.64 18.8085 126.558 19.2546 126.711 20.001C126.889 20.8675 126.944 21.0764 126.998 21.1963C127.022 21.2494 127.043 21.2822 127.116 21.4004C127.186 21.5134 127.276 21.6659 127.4 21.915L127.456 22.0391C127.572 22.3246 127.584 22.5858 127.531 22.8281C127.503 22.9549 127.46 23.0651 127.424 23.1514C127.377 23.2604 127.361 23.2881 127.331 23.3633C127.289 23.4667 127.288 23.5066 127.299 23.5488C127.314 23.6096 127.374 23.7508 127.622 23.998C128.151 24.5264 128.277 24.4271 128.63 24.6602C128.728 24.7252 128.83 24.8198 128.902 24.9609C128.969 25.0924 128.991 25.2287 128.998 25.3496C129.004 25.462 128.998 25.5951 128.982 25.75L128.913 26.2832C128.797 27.0673 128.762 28.2011 128.826 29.3506C128.882 30.3596 129.012 31.3455 129.214 32.0957L129.305 32.4023V32.4033L129.49 32.9551C129.661 33.4451 129.79 33.7639 129.887 34.0166C130.016 34.3543 130.099 34.6072 130.119 34.9668C130.121 34.9701 130.126 34.9776 130.138 34.9863C130.169 35.0093 130.195 35.0096 130.2 35.0088C130.201 35.0087 130.203 35.0078 130.21 35.0029C130.218 34.9967 130.239 34.9767 130.264 34.9277C130.306 34.8482 130.351 34.7026 130.363 34.46V34.1846C130.322 33.2864 130.203 31.8352 130.189 30.3799C130.176 28.93 130.264 27.3752 130.675 26.2334L131.136 24.9307C131.521 23.8464 131.765 23.2831 132.617 22.0068C132.904 21.5773 133.117 21.3152 133.272 21.123C133.431 20.9267 133.493 20.8455 133.541 20.7402C133.589 20.6339 133.635 20.4749 133.685 20.125C133.735 19.7761 133.784 19.2794 133.856 18.5156L133.901 17.9775C133.984 16.7986 133.932 16.1148 133.965 15.416C134.002 14.6114 134.163 13.9763 134.758 13.0547L135.42 12.0049C135.953 11.133 136.157 10.7068 136.559 9.9336C136.797 9.47754 137.004 8.77836 137.153 8.05664C137.302 7.33972 137.383 6.65297 137.389 6.24219L137.394 5.6377C137.402 5.44125 137.427 5.23128 137.504 5.01563C137.664 4.56902 138.01 4.21828 138.581 3.8291C138.744 3.7176 138.869 3.54517 138.972 3.29688C139.077 3.04133 139.145 2.74849 139.223 2.41309C139.295 2.10018 139.379 1.73095 139.527 1.41797C139.682 1.0899 139.934 0.766591 140.365 0.616213L140.488 0.578127ZM121.717 16.8047C121.718 16.8062 121.72 16.8066 121.72 16.8066L121.715 16.8018C121.716 16.8027 121.716 16.804 121.717 16.8047Z" fill="#11CCAB" stroke="#0F1E21"/>
<path d="M151.866 24.4484C152.059 24.4707 152.253 24.5235 152.421 24.5666C152.6 24.6122 152.787 24.6583 153.014 24.6916C154.199 24.8647 154.928 25.5218 155.557 26.092L155.686 26.2141C155.975 26.4998 156.174 26.7908 156.303 27.132C156.446 27.5068 156.49 27.9098 156.519 28.3557L156.544 28.5666C156.553 28.611 156.562 28.6338 156.566 28.6438C156.566 28.6448 156.567 28.6461 156.567 28.6467C156.57 28.6494 156.576 28.6545 156.587 28.6633C156.613 28.6836 156.75 28.7787 156.863 28.8908C156.959 28.9865 157.053 29.1035 157.144 29.2561L157.234 29.4201L157.235 29.4221L157.318 29.6096C157.487 30.0396 157.476 30.4133 157.407 30.7502C157.371 30.9236 157.317 31.0998 157.28 31.2346C157.239 31.38 157.208 31.5053 157.194 31.633C157.144 32.0729 156.956 32.4498 156.798 32.7492C156.67 32.9927 156.564 33.1839 156.492 33.3703L156.431 33.5568C156.42 33.6008 156.415 33.7 156.461 33.8654C156.506 34.0252 156.589 34.2137 156.707 34.4143C156.944 34.8179 157.291 35.2178 157.639 35.4836L157.815 35.6311C157.978 35.7819 158.104 35.9445 158.193 36.1223C158.312 36.3604 158.352 36.596 158.357 36.8117C158.362 37.0172 158.336 37.2215 158.316 37.384C158.295 37.5587 158.28 37.7036 158.283 37.8488L158.273 38.052C158.219 38.5229 157.957 38.9631 157.712 39.302C157.567 39.5029 157.405 39.6979 157.253 39.8723L156.851 40.3205C156.631 40.5691 156.212 41.0843 155.793 41.592C155.586 41.8417 155.381 42.0877 155.207 42.2893C155.041 42.4803 154.878 42.6621 154.764 42.76C154.438 43.0434 153.982 43.3598 153.297 43.4885L152.989 43.5315C152.684 43.56 152.391 43.6452 152.098 43.7375C151.959 43.7814 151.808 43.8309 151.671 43.8684C151.536 43.9056 151.381 43.941 151.226 43.9475C150.812 43.9648 150.479 43.7064 150.286 43.5061C150.09 43.3032 149.92 43.037 149.844 42.7883C149.827 42.7845 149.804 42.778 149.773 42.7736L149.516 42.7492C149.203 42.7253 148.865 42.5861 148.602 42.4602C148.464 42.3939 148.329 42.3221 148.208 42.2551L147.895 42.0783C147.83 42.041 147.697 42.0051 147.45 41.9934C147.328 41.9876 147.201 41.988 147.064 41.9904L146.619 42.0002C146.46 42.0031 146.298 41.998 146.157 41.9602C145.99 41.9156 145.811 41.8129 145.71 41.6057C145.635 41.4543 145.633 41.2908 145.63 41.2453L145.615 41.0656C145.573 40.8375 145.523 40.1922 145.478 39.5256L145.363 37.5822C145.328 36.919 145.399 36.689 145.072 36.3078V36.3068C144.802 35.9937 144.534 35.5698 144.365 35.1115C144.197 34.6592 144.104 34.1146 144.267 33.5988C144.54 32.7329 145.009 32.4015 145.35 32.0139L145.389 31.9621C145.479 31.8259 145.566 31.5695 145.633 31.1897C145.706 30.7793 145.74 30.3326 145.777 29.9377V29.9358L145.808 29.7365C145.907 29.2842 146.177 28.9249 146.464 28.6672C146.791 28.3743 147.182 28.1733 147.506 28.0793L147.609 28.0334C147.653 28.009 147.708 27.9751 147.772 27.9289C147.893 27.8413 148.022 27.7287 148.141 27.6096C148.261 27.4905 148.363 27.373 148.434 27.2775C148.47 27.2295 148.494 27.1931 148.506 27.1701C148.507 27.1685 148.508 27.1666 148.508 27.1652C148.532 27.0692 148.572 26.9836 148.601 26.9289C148.641 26.8521 148.693 26.7694 148.75 26.6848C148.863 26.5144 149.015 26.3134 149.191 26.1057C149.54 25.6934 150.007 25.2202 150.491 24.8762H150.492L150.679 24.7512C151.106 24.4863 151.467 24.4026 151.866 24.4484ZM150.834 29.7024C150.804 29.7058 150.753 29.7174 150.681 29.7551L150.68 29.7541C150.272 29.9702 150.25 30.1975 149.923 30.8391V30.84C149.853 30.9777 149.848 31.076 149.882 31.2746C149.918 31.4759 150.017 31.8456 150.038 32.302L150.041 32.4729C150.039 32.6406 150.019 32.7987 149.969 32.9436C149.894 33.1605 149.764 33.3079 149.616 33.4152C149.499 33.4998 149.345 33.5735 149.262 33.6164C149.211 33.643 149.16 33.6712 149.106 33.7043L148.938 33.8205C148.694 34.012 148.564 34.1958 148.496 34.3703C148.427 34.546 148.405 34.7499 148.438 35.0051H148.437C148.472 35.2645 148.515 35.344 148.572 35.5227C148.624 35.6892 148.655 35.857 148.654 36.1018L148.641 36.3742C148.637 36.4202 148.641 36.4477 148.644 36.4611C148.647 36.4728 148.65 36.4772 148.651 36.4787C148.652 36.4805 148.668 36.5035 148.736 36.5334C148.898 36.6044 149.139 36.6306 149.472 36.6633L149.73 36.6994C149.982 36.7491 150.219 36.8417 150.419 37.0149C150.685 37.2469 150.812 37.5615 150.889 37.885L150.94 38.0744C151.064 38.4909 151.235 38.7303 151.466 38.8244C151.579 38.8704 151.772 38.8784 152.017 38.8147C152.24 38.7568 152.442 38.653 152.573 38.5568L152.601 38.5354C152.649 38.4971 152.707 38.4111 152.724 38.2317C152.741 38.0534 152.71 37.832 152.634 37.6164C152.57 37.435 152.473 37.3284 152.292 37.0774C152.138 36.8656 151.973 36.6023 151.888 36.2229L151.857 36.0529C151.787 35.5619 151.905 35.2266 152.067 34.9592C152.12 34.8711 152.227 34.7192 152.25 34.6838C152.293 34.6164 152.315 34.5736 152.326 34.5344C152.381 34.3407 152.431 34.0943 152.437 33.8772C152.44 33.7534 152.428 33.6746 152.416 33.6272L152.392 33.5656C152.159 33.3411 151.759 33.0554 151.246 32.7942L151.019 32.6838C150.796 32.5805 150.605 32.4375 150.481 32.2346C150.354 32.0272 150.333 31.8156 150.344 31.6447C150.354 31.4891 150.394 31.3323 150.416 31.2404C150.429 31.1839 150.438 31.1406 150.444 31.1057L150.452 31.0217C150.45 30.6929 150.558 30.4205 150.644 30.215C150.728 30.0144 150.792 29.8697 150.834 29.7024Z" fill="#11CCAB" stroke="#0F1E21"/>
<path d="M167.425 39.1616C167.426 39.1628 167.432 39.169 167.448 39.1802C167.511 39.2248 167.562 39.2461 167.73 39.3413C167.874 39.423 168.047 39.5318 168.232 39.6997L168.355 39.8169C168.632 40.0918 168.836 40.3848 168.973 40.7309C169.126 41.1184 169.182 41.5401 169.195 42.0181L169.219 43.2143C169.223 43.593 169.223 43.9856 169.219 44.4927C169.217 44.9786 169.256 45.1502 169.301 45.2583C169.325 45.3166 169.359 45.3752 169.421 45.4702C169.48 45.5598 169.569 45.6893 169.666 45.8491L169.795 46.063L169.792 46.0679C170.106 46.548 170.521 47.1349 170.614 47.9341L170.625 48.1138C170.628 48.2957 170.6 48.4806 170.507 48.646C170.367 48.8947 170.141 49.0012 169.948 49.0395C169.776 49.0737 169.6 49.0602 169.486 49.0503C169.344 49.038 169.266 49.0278 169.184 49.0278C168.824 49.0278 168.545 48.8971 168.33 48.6645C168.155 48.474 168.027 48.2136 167.924 48.0161C167.766 47.7112 167.74 47.5109 167.725 47.2983C167.716 47.1767 167.709 47.0456 167.666 46.8374L167.611 46.6011C167.417 45.8774 167.094 45.3554 166.627 44.5854C166.495 44.3664 166.407 44.1682 166.365 43.9731C166.321 43.7697 166.333 43.601 166.356 43.4595C166.398 43.1985 166.447 43.104 166.401 42.8208V42.8188C166.341 42.4433 166.289 42.2592 166.235 42.1362C166.209 42.0787 166.181 42.0281 166.14 41.9702L165.972 41.7593C165.702 41.4367 165.043 40.6662 164.622 40.2534L164.459 40.1011C164.042 39.7386 162.941 38.79 162.712 38.5815C162.588 38.4683 162.505 38.3262 162.448 38.2026C162.388 38.0746 162.341 37.934 162.303 37.7944C162.265 37.6549 162.234 37.5049 162.206 37.353L162.135 36.8999C162.091 36.5775 162.078 36.1619 162.071 35.8032C162.067 35.6118 162.064 35.4401 162.061 35.2964L162.046 34.9565C162.044 34.9377 162.039 34.9218 162.037 34.9077C162.006 34.9095 161.964 34.9124 161.911 34.9214C161.909 34.9305 161.907 34.9417 161.905 34.9556C161.892 35.0374 161.887 35.1446 161.884 35.312C161.881 35.4684 161.878 35.6644 161.859 35.8764C161.829 36.199 161.864 36.6853 161.934 37.1968C162.002 37.6989 162.097 38.1865 162.17 38.4936L162.224 38.7524C162.265 38.9948 162.272 39.1899 162.264 39.3462C162.259 39.45 162.247 39.5311 162.238 39.5884C162.232 39.6225 162.231 39.6241 162.229 39.6352C162.227 39.7586 162.206 39.9462 162.12 40.2378L161.991 40.6274C161.779 41.2041 161.682 41.2997 161.424 41.8442L161.423 41.8452C161.337 42.0259 161.317 42.3029 161.345 42.6518C161.358 42.8179 161.381 42.981 161.404 43.1391C161.424 43.2865 161.449 43.4521 161.455 43.5854L161.486 43.8462C161.497 43.9407 161.515 44.1044 161.475 44.2739C161.427 44.4747 161.307 44.648 161.117 44.769C160.99 44.849 160.845 44.8995 160.691 44.9321L160.534 44.9595C160.276 44.9963 160.034 44.9682 159.822 44.8686C159.61 44.7696 159.466 44.618 159.369 44.4712C159.275 44.3282 159.22 44.1816 159.186 44.0766C159.169 44.0248 159.154 43.9742 159.145 43.9429L159.132 43.8999C159.088 43.7934 159.078 43.6757 159.074 43.6216C159.068 43.5457 159.066 43.4585 159.066 43.3686C159.065 43.1874 159.073 42.9639 159.083 42.7368C159.106 42.2443 159.137 41.8158 159.151 41.5083L159.15 41.3823C159.142 41.2679 159.112 41.1786 159.064 41.0425C159.008 40.886 158.935 40.6915 158.876 40.4067L158.823 40.0893C158.792 39.8569 158.788 39.6501 158.827 39.4673C158.872 39.2637 158.965 39.1139 159.083 38.9985C159.135 38.9487 159.186 38.9098 159.219 38.8852C159.259 38.856 159.273 38.8453 159.292 38.8296C159.316 38.8106 159.328 38.7982 159.342 38.771C159.373 38.7102 159.386 38.624 159.346 38.4936C159.315 38.3926 159.256 38.2822 159.176 38.1743L159.089 38.0669C158.858 37.8073 158.758 37.5379 158.701 37.2954C158.675 37.1814 158.656 37.0669 158.641 36.9751C158.625 36.8774 158.61 36.7966 158.59 36.7182H158.589C158.408 36.0068 158.595 35.4058 158.792 34.936C158.841 34.8193 158.893 34.7067 158.94 34.604C158.988 34.4987 159.03 34.4041 159.069 34.313C159.146 34.128 159.188 33.9914 159.199 33.8774V33.7612L159.198 33.7602C159.188 33.7536 159.169 33.7417 159.135 33.727C159.045 33.6879 158.932 33.6559 158.742 33.6001C158.566 33.5484 158.349 33.4822 158.118 33.3804H158.117C157.878 33.2739 157.657 33.1301 157.514 32.9116C157.36 32.6759 157.346 32.4287 157.375 32.2222C157.402 32.0351 157.471 31.8411 157.525 31.687C157.584 31.5174 157.642 31.3524 157.688 31.1655L157.758 30.8345C157.825 30.4724 157.884 30.0279 157.915 29.5962C157.936 29.3099 157.945 29.0374 157.94 28.8061C157.934 28.5679 157.913 28.4054 157.889 28.3188L157.853 28.1655C157.782 27.8051 157.811 27.4226 157.856 27.1186C157.907 26.77 157.995 26.43 158.022 26.3022C158.086 25.9866 158.223 25.398 158.241 24.9067V24.7026C158.227 24.3962 158.217 24.2294 158.187 24.0532C158.157 23.8795 158.103 23.6816 157.984 23.3325V23.3315C157.863 22.9812 157.772 22.6206 157.899 22.2954C157.967 22.1207 158.079 22.0014 158.182 21.9175C158.274 21.8422 158.385 21.7745 158.462 21.7261L158.568 21.6665C158.824 21.5365 159.158 21.4731 159.478 21.6372C159.849 21.8279 160.003 22.2232 160.033 22.6245L160.059 23.0698C160.071 23.3409 160.073 23.5768 160.069 23.8667L160.058 24.354V24.3559C160.053 24.5349 160.054 24.6293 160.06 24.6831C160.068 24.6917 160.081 24.702 160.096 24.7173C160.156 24.7783 160.24 24.865 160.339 24.9975L160.422 25.1216C160.496 25.247 160.544 25.3757 160.567 25.5102C160.574 25.5559 160.578 25.6005 160.58 25.6431C160.718 25.3864 160.838 25.0829 160.917 24.7026L160.918 24.6997L160.964 24.5337C161.093 24.1481 161.366 23.7872 161.595 23.5171C161.734 23.3526 161.878 23.1995 161.998 23.0708C162.125 22.9353 162.216 22.8389 162.274 22.7681C162.539 22.4435 162.951 22.3232 163.299 22.2817C163.665 22.2382 164.07 22.2674 164.444 22.3374L164.703 22.3931C164.941 22.4497 165.121 22.5115 165.278 22.5708C165.492 22.6519 165.602 22.702 165.773 22.7456H165.772C165.807 22.7539 165.887 22.7493 166.116 22.6616C166.289 22.595 166.609 22.4502 166.922 22.4233L167.115 22.4126C167.334 22.4105 167.624 22.4492 167.865 22.6645C168.178 22.9451 168.268 23.3948 168.273 23.9057V24.7212C168.27 24.858 168.266 24.9436 168.262 25.2261C168.261 25.3382 168.301 25.452 168.467 25.6313C168.654 25.8324 168.9 26.0182 169.256 26.3237L169.492 26.5366C169.71 26.7463 169.876 26.9534 169.986 27.2046C170.125 27.5251 170.152 27.874 170.178 28.2632H170.177C170.208 28.7042 170.186 29.056 170.105 29.3843C170.024 29.7101 169.891 29.985 169.739 30.2671L169.738 30.269C169.618 30.489 169.433 30.6689 169.255 30.812C169.073 30.9587 168.864 31.0918 168.663 31.2104C168.464 31.3287 168.254 31.443 168.077 31.5415C167.893 31.6445 167.746 31.7295 167.64 31.8032L167.638 31.8042C167.356 31.9994 166.825 32.2953 166.319 32.5835C165.789 32.8852 165.272 33.187 164.956 33.4204C164.856 33.4947 164.824 33.5571 164.812 33.5981C164.8 33.6412 164.795 33.7133 164.836 33.8296C164.927 34.0827 165.201 34.4416 165.727 34.855L166.333 35.3159C166.47 35.4176 166.59 35.5058 166.688 35.5962C166.908 35.7987 167.019 36.0153 167.231 36.3872C167.517 36.8884 167.577 37.3262 167.553 37.7534C167.542 37.9533 167.512 38.1514 167.485 38.3325C167.471 38.4261 167.457 38.5181 167.445 38.6108L167.414 38.896C167.401 39.0757 167.419 39.1448 167.425 39.1616ZM165.117 26.3764C165.053 26.364 164.964 26.3617 164.777 26.4067L164.554 26.4682C164.225 26.5701 164.044 26.6748 163.934 26.769C163.857 26.8347 163.801 26.9074 163.754 27.0024L163.71 27.1059C163.654 27.2542 163.524 27.8221 163.033 28.2466L162.929 28.3286C162.769 28.4476 162.602 28.5221 162.465 28.5757C162.295 28.6422 162.237 28.6559 162.123 28.7046C162.036 28.7419 161.998 28.77 161.979 28.7895C161.967 28.8016 161.948 28.8231 161.934 28.8852C161.871 29.1778 161.853 29.3628 161.877 29.5132C161.898 29.6432 161.957 29.7852 162.138 29.9682L162.217 30.0366C162.23 30.0452 162.232 30.0435 162.222 30.0405C162.217 30.0389 162.216 30.0396 162.235 30.0415C162.237 30.0418 162.313 30.0475 162.366 30.0561C162.538 30.0845 162.702 30.1633 162.854 30.3286C162.981 30.4668 163.095 30.6599 163.213 30.9097L163.261 31.0122V31.02C163.3 31.108 163.332 31.1873 163.358 31.2583C163.447 31.2259 163.552 31.1881 163.675 31.1489C164.251 30.9658 164.485 30.8587 164.604 30.7475C164.675 30.6812 164.745 30.5773 164.758 30.1811L164.762 29.7602C164.759 29.6872 164.753 29.6638 164.747 29.6421C164.721 29.5367 164.661 29.3767 164.591 28.8774C164.541 28.5205 164.419 28.4768 164.258 28.1616C164.22 28.0876 164.167 27.9657 164.166 27.8139C164.165 27.6459 164.228 27.5009 164.317 27.3862C164.461 27.2006 164.702 27.0697 164.939 26.9565L165.255 26.7964C165.348 26.7464 165.429 26.6999 165.497 26.6557C165.525 26.6383 165.546 26.619 165.568 26.604C165.312 26.4468 165.211 26.3951 165.117 26.3764Z" fill="#11CCAB" stroke="#0F1E21"/>
<path d="M176.556 14.8717C176.772 14.8231 176.977 14.8639 177.158 14.9508L177.294 15.0279C177.59 15.226 177.748 15.5417 177.806 15.8697C177.856 16.144 177.843 16.4495 177.784 16.7682L177.71 17.0914C177.659 17.2793 177.618 17.4624 177.572 17.6539C177.528 17.8397 177.479 18.0337 177.42 18.2154C177.304 18.5675 177.115 18.9727 176.713 19.2115C176.678 19.232 176.614 19.2797 176.607 19.5221C176.6 19.7755 176.664 20.1237 176.781 20.5738C176.803 20.6574 176.824 20.7214 176.84 20.7711C176.856 20.7757 176.874 20.7794 176.892 20.7857C177.072 20.8497 177.217 20.9752 177.346 21.1383C177.469 21.2949 177.564 21.4627 177.608 21.651C177.654 21.8444 177.637 22.0181 177.6 22.1676C177.568 22.3022 177.512 22.44 177.473 22.5426C177.452 22.5995 177.431 22.6563 177.411 22.7154L177.355 22.9019C177.219 23.4315 176.987 23.9118 176.766 24.359L176.554 24.7955C176.304 25.3238 176.307 25.5504 176.197 26.3814C176.147 26.7613 176.148 26.9328 176.161 27.0709C176.168 27.1476 176.179 27.2205 176.196 27.3297C176.212 27.4361 176.231 27.5644 176.248 27.731L176.254 27.9185C176.235 28.3398 176.01 28.6501 175.841 28.8844C175.635 29.1675 175.422 29.4438 175.261 29.8893C175.231 29.97 175.229 30.0168 175.23 30.0367C175.231 30.0529 175.235 30.0563 175.235 30.0572C175.242 30.0672 175.286 30.1184 175.44 30.1666C175.751 30.2634 176.217 30.2572 176.548 30.2027L176.812 30.1617C177.082 30.1235 177.36 30.1015 177.616 30.1559C178.022 30.2423 178.307 30.4963 178.522 30.8795L178.615 31.0348C178.653 31.0209 178.703 31.0032 178.757 30.985L178.875 30.9381C178.917 30.9197 178.963 30.8985 179.014 30.8736C179.111 30.8273 179.237 30.764 179.368 30.7057C179.645 30.5827 179.982 30.4627 180.432 30.4107L180.643 30.4C181.12 30.4065 181.485 30.6302 181.752 30.9107C182.036 31.2091 182.233 31.5962 182.373 31.8678L182.381 31.8824C182.382 31.884 182.384 31.8826 182.389 31.8844C182.431 31.8981 182.51 31.9082 182.686 31.9068C183.003 31.9044 183.539 31.8641 184.13 32.0582C184.263 32.1019 184.38 32.1468 184.476 32.1939C184.555 32.2324 184.692 32.3061 184.788 32.4391C184.844 32.5175 184.898 32.6328 184.896 32.776C184.895 32.918 184.839 33.0293 184.786 33.1021C184.695 33.2255 184.571 33.2924 184.52 33.3189C184.453 33.3539 184.378 33.3845 184.319 33.4088C184.253 33.4359 184.197 33.4582 184.138 33.484C184.013 33.5386 183.949 33.5792 183.923 33.6041C183.915 33.6098 183.921 33.5556 183.9 33.8844C183.892 34.022 183.869 34.2129 183.77 34.4146C183.669 34.6211 183.508 34.8004 183.28 34.9547C182.777 35.2953 182.203 35.2684 181.766 35.1402C181.394 35.0309 181.038 34.8253 180.812 34.5924L180.724 34.4908C180.598 34.3295 180.384 34.168 179.909 34.1588L179.689 34.1646C179.368 34.1864 179.149 34.2599 178.859 34.3346C178.605 34.3999 178.315 34.4577 177.963 34.4019L177.807 34.3707C177.42 34.2763 177.093 34.0756 176.838 33.9342C176.635 33.8219 176.44 33.7225 176.211 33.6529L175.969 33.5934C175.913 33.5831 175.881 33.5861 175.868 33.5885C175.856 33.5906 175.853 33.593 175.852 33.5934C175.85 33.5953 175.82 33.6191 175.792 33.7076C175.731 33.8987 175.744 34.1888 175.805 34.3863L175.86 34.5807C175.907 34.7685 175.924 34.9418 175.865 35.1383C175.813 35.3108 175.789 35.3253 175.748 35.4635L175.7 35.6539C175.665 35.8115 175.657 35.8856 175.655 35.9225C175.654 35.9413 175.655 35.9425 175.66 35.9586C175.687 36.0483 175.776 36.2452 175.836 36.693C175.864 36.9017 175.876 37.0836 175.853 37.2457C175.827 37.4363 175.757 37.5691 175.68 37.6773C175.597 37.7958 175.594 37.7836 175.535 37.8775C175.514 37.9105 175.491 37.9538 175.464 38.0113L175.375 38.233C175.31 38.4218 175.306 38.5018 175.307 38.525L175.316 38.5387C175.361 38.6014 175.644 38.8756 175.799 39.3443L175.851 39.5377C175.948 39.9893 175.869 40.4368 175.741 40.8033C175.63 41.1193 175.472 41.4062 175.313 41.6305L175.156 41.8326C175.028 41.9805 174.995 42.063 174.976 42.1432C174.95 42.2591 174.948 42.3973 174.942 42.7154C174.938 42.9538 174.978 43.136 175.019 43.4234C175.059 43.7017 175.088 44.0263 175.007 44.4283C174.879 45.0602 174.792 45.9659 174.98 46.5689L175.027 46.7545C175.116 47.1871 175.049 47.6091 174.976 47.9664C174.909 48.2985 174.836 48.5762 174.799 48.8541L174.774 49.1344C174.754 49.6799 174.55 50.1412 174.215 50.4439C173.879 50.7467 173.421 50.8752 172.976 50.7437C172.777 50.6847 172.591 50.5818 172.457 50.4107C172.322 50.2388 172.28 50.0498 172.271 49.8971C172.263 49.7528 172.283 49.6131 172.298 49.5201C172.315 49.4086 172.325 49.3507 172.328 49.2945L172.346 49.106C172.371 48.8921 172.419 48.6107 172.473 48.3238C172.548 47.9292 172.64 47.4867 172.722 47.11L172.768 46.8824C172.852 46.419 172.783 46.363 172.812 45.4986L172.82 44.8404C172.814 44.3011 172.778 43.8008 172.712 43.4576L172.668 43.2711C172.545 42.8434 172.398 42.6361 172.286 41.8023C172.233 41.4068 172.228 41.101 172.324 40.8736C172.374 40.7558 172.446 40.6697 172.525 40.607C172.526 40.6061 172.527 40.605 172.527 40.6041C172.573 40.5055 172.651 40.3458 172.812 40.0572L172.829 40.0035C172.839 39.9317 172.823 39.8024 172.717 39.5963C172.621 39.4104 172.488 39.2375 172.386 39.1217L172.296 39.026C172.12 38.8568 172.053 38.6358 172.023 38.4723C171.992 38.298 171.991 38.1131 172.003 37.9449C172.026 37.6111 172.106 37.2579 172.197 37.0201L172.275 36.8434C172.302 36.7908 172.328 36.7443 172.351 36.7037C172.405 36.6108 172.428 36.5783 172.45 36.5328C172.465 36.5015 172.468 36.489 172.469 36.482L172.457 36.3873C172.301 35.7615 172.56 35.1345 172.787 34.606L172.917 34.2809C172.945 34.2008 172.959 34.1447 172.966 34.0973C172.973 34.0472 172.973 33.9947 172.948 33.901L172.915 33.7926C172.914 33.7905 172.913 33.7887 172.912 33.7867C172.886 33.7884 172.854 33.7909 172.815 33.7955L172.325 33.8736C171.857 33.9545 171.448 33.9308 171.141 33.6568C171.006 33.5354 170.926 33.3935 170.875 33.2935C170.808 33.1634 170.798 33.1289 170.748 33.0396C170.708 32.9686 170.685 32.9439 170.678 32.9371C170.662 32.9326 170.622 32.9256 170.533 32.9234L170.158 32.9322L170.007 32.9381L170.012 32.9478L169.243 32.984C168.647 33.012 168.099 32.7554 167.955 32.2008C167.82 31.6787 168.129 31.184 168.592 30.9322L168.751 30.8541C169.121 30.6929 169.471 30.672 169.721 30.6568C170.051 30.6369 170.14 30.6201 170.203 30.5738L170.305 30.5025C170.409 30.4366 170.514 30.3857 170.631 30.3492C170.779 30.3028 170.922 30.2875 171.052 30.2779C171.308 30.259 171.622 30.2536 172.209 30.1519C172.252 30.1445 172.291 30.1336 172.327 30.1266C172.289 30.0439 172.252 29.9479 172.225 29.8385L172.194 29.6529C172.122 28.9475 172.158 27.789 172.294 27.2027L172.329 27.0768C172.421 26.7853 172.585 26.5244 172.66 26.3805C172.737 26.2333 172.774 26.1322 172.778 26.0367L172.772 25.942C172.712 25.5751 172.742 25.2926 172.799 25.0103C172.858 24.7175 172.92 24.5125 172.98 24.1285C173.013 23.9163 173.05 23.7481 173.084 23.606C173.119 23.4565 173.144 23.3633 173.164 23.2613C173.189 23.135 173.204 23.0077 173.19 22.8102L173.167 22.5855C173.1 22.0973 173.217 21.4607 173.324 20.9801C173.38 20.7296 173.439 20.4919 173.482 20.3141C173.504 20.2226 173.522 20.1492 173.534 20.0924C173.548 20.0251 173.546 20.0144 173.546 20.0318C173.55 19.8218 173.632 19.4721 173.735 19.151C173.841 18.8207 174 18.4271 174.202 18.1383L174.482 17.7144C174.806 17.2112 175.228 16.5128 175.493 16.0221L175.625 15.7818C175.76 15.5432 175.907 15.315 176.072 15.1519C176.191 15.0348 176.35 14.9184 176.556 14.8717Z" fill="#11CCAB" stroke="#0F1E21"/>
<path d="M187.521 12.5369C187.756 12.4557 188.023 12.4684 188.272 12.6131C188.524 12.7593 188.713 13.0124 188.855 13.324L189.205 14.0916C189.397 14.5083 189.614 14.9821 189.809 15.4471C189.975 15.8441 190.131 16.2456 190.249 16.6111C190.364 16.9676 190.455 17.3259 190.469 17.6258L190.482 17.7898C190.53 18.2065 190.682 18.8511 190.879 19.493C190.989 19.8521 191.109 20.1959 191.224 20.4783C191.343 20.7734 191.441 20.9624 191.5 21.0428L191.607 21.16C191.651 21.2006 191.704 21.2439 191.768 21.2918C191.832 21.3393 191.9 21.3862 191.977 21.4402C192.053 21.4928 192.137 21.552 192.221 21.615C192.564 21.8735 192.951 22.2368 193.122 22.8631L193.173 23.0779C193.285 23.6113 193.342 24.3549 193.364 25.0447C193.39 25.8412 193.372 26.6401 193.32 27.077C193.232 27.817 193.406 28.2017 193.569 28.3387L193.847 28.5779C194.127 28.8358 194.4 29.165 194.531 29.7098L194.568 29.825C194.613 29.9354 194.685 30.0367 194.804 30.1854C194.963 30.3846 195.193 30.6532 195.408 31.0672L195.486 31.2303C195.653 31.6065 195.704 31.9555 195.658 32.3006C195.621 32.5797 195.522 32.8336 195.413 33.0623L195.303 33.283C195.218 33.4468 195.113 33.6138 195.024 33.7557C194.93 33.9068 194.852 34.0332 194.797 34.1463C194.794 34.1519 194.792 34.1575 194.789 34.1629C194.808 34.1519 194.832 34.1422 194.855 34.1258C195.062 33.982 195.327 33.6852 195.592 33.2283L195.668 33.0857C195.734 32.9521 195.771 32.8418 195.8 32.7449C195.816 32.69 195.842 32.5954 195.864 32.5281C195.89 32.4502 195.929 32.3506 195.995 32.2518C196.145 32.0282 196.363 31.9123 196.608 31.8377C196.841 31.7669 197.158 31.715 197.582 31.6629L198.12 31.5896C198.556 31.5216 198.708 31.4677 198.813 31.407C198.886 31.3652 198.95 31.3124 199.089 31.1912C199.223 31.074 199.4 30.9186 199.669 30.7215C200.176 30.3491 200.345 30.2544 200.624 30.1805C200.783 30.1384 201.011 30.0965 201.785 29.7303L202.06 29.5945C203.387 28.9091 204.041 28.125 204.646 27.4119C205.009 26.9852 205.606 26.4619 206.188 26.0379C206.482 25.8242 206.783 25.6273 207.06 25.4764C207.324 25.333 207.617 25.203 207.88 25.1697L208.411 25.073C208.605 25.0375 208.855 24.9979 209.081 25.0145C209.297 25.0303 209.678 25.1176 209.83 25.5164C209.923 25.7599 209.884 26.0229 209.801 26.2674L209.706 26.5037C209.399 27.1788 208.826 27.8148 208.241 28.3494C207.797 28.7557 207.322 29.1236 206.902 29.4285L206.504 29.7117C206.298 29.8546 206.064 30.0721 205.788 30.3484C205.526 30.6108 205.213 30.94 204.904 31.2391C204.327 31.7972 203.62 32.3989 202.81 32.6248L202.645 32.6648C201.327 32.9428 200.663 33.4106 200.427 33.9744L200.385 34.0887C200.12 34.9336 199.824 36.2634 198.24 36.9012C197.597 37.1602 196.563 37.6528 195.672 38.2195C195.226 38.5033 194.83 38.7952 194.54 39.076C194.312 39.2968 194.184 39.477 194.124 39.6102L194.086 39.7273C193.952 40.4714 193.48 41.0931 192.92 41.5916C192.355 42.0938 191.657 42.5108 190.984 42.8426C190.39 43.1356 189.514 43.761 188.752 44.4686C188.373 44.8198 188.034 45.1806 187.778 45.5174C187.58 45.7776 187.45 46.001 187.379 46.1785L187.328 46.3396C187.081 47.4697 186.89 48.3039 186.185 49.1746L186.036 49.3494C185.402 50.0654 184.889 50.712 184.498 51.4383L184.338 51.7547C184.201 52.0427 183.967 52.364 183.715 52.6746C183.457 52.9923 183.154 53.3296 182.858 53.6512C182.557 53.9788 182.27 54.2809 182.021 54.5555C181.832 54.7645 181.685 54.9354 181.586 55.0643L181.504 55.1785C181.248 55.5701 180.6 56.3146 179.847 56.9803C179.466 57.3163 179.046 57.6438 178.62 57.9012C178.253 58.1229 177.856 58.3096 177.46 58.3895L177.29 58.4168C175.974 58.5769 175.299 58.7724 174.828 59.2068L174.736 59.2977C174.271 59.7856 173.089 60.9297 172.329 61.6502L171.751 62.1902C171.534 62.3854 171.259 62.4725 171.011 62.4939C170.76 62.5155 170.491 62.4748 170.255 62.3611C170.016 62.2465 169.781 62.0401 169.682 61.7225C169.581 61.4018 169.649 61.0652 169.824 60.7518L169.954 60.5398C170.298 60.0182 170.922 59.3197 171.606 58.6873C172.385 57.9675 173.33 57.2495 174.141 56.9686L174.603 56.8016C175.001 56.6509 175.216 56.5411 175.394 56.4021C175.641 56.2104 175.842 55.9464 176.296 55.3357L176.416 55.1541C176.664 54.7341 176.69 54.3314 176.822 53.8328C176.892 53.5711 177.006 53.2531 177.28 53.0096C177.561 52.76 177.934 52.6541 178.38 52.6414C179.116 52.6203 179.254 52.4731 179.281 52.4363C179.302 52.409 179.327 52.3588 179.349 52.2391C179.376 52.0894 179.377 51.9903 179.41 51.7557L179.464 51.4607C179.529 51.1793 179.638 50.9336 179.849 50.6883C180.092 50.4056 180.466 50.1352 180.976 49.7674C181.27 49.5544 181.571 49.3898 181.83 49.2537C182.103 49.1105 182.307 49.0095 182.468 48.9012C182.626 48.7943 182.67 48.7279 182.683 48.6961C182.688 48.6818 182.713 48.6152 182.634 48.4266C182.518 48.1514 182.414 47.9313 182.29 47.6453C182.177 47.3841 182.067 47.1065 181.998 46.8299C181.929 46.5527 181.893 46.2484 181.954 45.9412C182.017 45.6233 182.178 45.3353 182.445 45.0916L182.637 44.9334C182.842 44.7757 183.088 44.6214 183.335 44.4764C183.667 44.2809 184.045 44.077 184.381 43.8895C184.727 43.6963 185.032 43.5187 185.257 43.3582C185.355 43.2879 185.427 43.2269 185.477 43.1785C185.429 43.1349 185.366 43.0851 185.251 42.9881C185.142 42.8961 184.921 42.7066 184.846 42.4187C184.754 42.0699 184.907 41.7627 185.125 41.5252L185.279 41.3719C185.652 41.03 186.111 40.8045 186.557 40.6365C187.059 40.4471 187.621 40.3056 188.064 40.1736L188.207 40.1268C188.518 40.0145 188.688 39.875 188.8 39.6805C188.944 39.4289 189.037 39.003 189.013 38.2234L189 37.6805C188.996 37.1903 189.021 36.844 189.105 36.5428C189.218 36.1421 189.438 35.8316 189.683 35.4256L189.772 35.2674C189.981 34.881 190.174 34.3804 190.291 33.8777C190.411 33.3606 190.436 32.9087 190.368 32.5965L190.334 32.4715C190.329 32.4579 190.322 32.4473 190.318 32.4373C190.297 32.4406 190.268 32.4446 190.23 32.452C190.122 32.4731 189.874 32.5301 189.62 32.4715C189.355 32.4102 189.144 32.2463 188.987 32.0018L188.924 31.8914C188.713 31.493 188.543 31.1812 188.445 30.8221C188.345 30.4543 188.326 30.0634 188.341 29.4939L188.352 29.2693C188.366 29.051 188.392 28.8517 188.416 28.6736C188.448 28.4283 188.474 28.2357 188.478 28.0496C188.485 27.7601 188.439 27.4848 188.212 27.1424L188.102 26.991C187.674 26.4383 187.417 25.9445 187.257 25.4285C187.139 25.0489 187.077 24.6678 187.031 24.2674L186.989 23.8602C186.932 23.2579 187.007 22.795 187.025 22.4461C187.041 22.1385 187.028 21.8044 186.876 21.2957L186.802 21.0672C186.689 20.7414 186.553 20.4413 186.416 20.158C186.285 19.8861 186.139 19.6008 186.035 19.3543C185.933 19.1109 185.834 18.8251 185.843 18.5359C185.852 18.2048 185.999 17.9141 186.284 17.698L186.696 17.3777C186.793 17.2964 186.855 17.2326 186.9 17.1648C186.96 17.0758 187.015 16.941 186.976 16.5701C186.926 16.1008 186.931 15.4298 186.931 14.868C186.931 14.5785 186.929 14.314 186.921 14.0994C186.917 13.9925 186.912 13.904 186.904 13.8348C186.901 13.8004 186.896 13.7734 186.893 13.7537L186.888 13.7293C186.805 13.4688 186.867 13.2118 186.964 13.0271C187.056 12.8518 187.208 12.6848 187.413 12.5828L187.354 12.4529L187.521 12.5369Z" fill="#11CCAB" stroke="#0F1E21"/>
</svg>
